<?xml version="1.0" encoding="utf-8"?>
<!-- Generator: Adobe Illustrator 19.2.0, SVG Export Plug-In . SVG Version: 6.00 Build 0)  -->
<svg version="1.1" id="Layer_1" xmlns="http://www.w3.org/2000/svg" xmlns:xlink="http://www.w3.org/1999/xlink" x="0px" y="0px"
	 viewBox="0 0 848.5 286.9" style="enable-background:new 0 0 848.5 286.9;" xml:space="preserve">
<style type="text/css">
	.st0{fill:url(#SVGID_1_);stroke:#FFFFFF;stroke-width:4.6105;stroke-miterlimit:10;}
	.st1{fill:#FFFFFF;}
	.st2{fill:#FFFFFF;stroke:#FFFFFF;stroke-width:1.0879;}
	.st3{fill:#FFFFFF;stroke:#FFFFFF;stroke-width:1.0621;}
	.st4{fill:#FFFFFF;stroke:#FFFFFF;stroke-width:1.0929;}
	.st5{fill:#FFFFFF;stroke:#FFFFFF;stroke-width:1.1028;}
	.st6{fill:url(#SVGID_2_);stroke:#FFFFFF;stroke-width:5.2894;stroke-miterlimit:10;}
	.st7{fill:url(#SVGID_3_);stroke:#FFFFFF;stroke-width:5.2894;stroke-miterlimit:10;}
	.st8{fill:#FFFFFF;stroke:#FFFFFF;stroke-width:1.2481;}
	.st9{fill:#FFFFFF;stroke:#FFFFFF;stroke-width:1.2186;}
	.st10{fill:#FFFFFF;stroke:#FFFFFF;stroke-width:1.2538;}
	.st11{fill:#FFFFFF;stroke:#FFFFFF;stroke-width:1.2652;}
	.st12{fill:url(#SVGID_4_);stroke:#FFFFFF;stroke-width:5.2894;stroke-miterlimit:10;}
	.st13{fill:#006838;}
	.st14{fill:#48B865;}
	.st15{fill:#C2B59B;stroke:#A97C50;stroke-width:3;stroke-miterlimit:10;}
	.st16{fill:#C49A6C;stroke:#8B5E3C;stroke-width:4;stroke-miterlimit:10;}
	.st17{fill:url(#SVGID_5_);stroke:#FFFFFF;stroke-width:5;stroke-miterlimit:10;}
	.st18{fill:url(#SVGID_6_);}
	.st19{fill:url(#SVGID_7_);stroke:#FFFFFF;stroke-width:5;stroke-miterlimit:10;}
	.st20{fill:url(#SVGID_8_);stroke:#FFFFFF;stroke-width:5;stroke-miterlimit:10;}
	.st21{opacity:0.6;fill:#C49A6C;enable-background:new    ;}
	.st22{opacity:0.42;}
	.st23{fill:#FFFFFF;stroke:#000000;stroke-width:4;stroke-miterlimit:10;}
</style>
<g>
	
		<linearGradient id="SVGID_1_" gradientUnits="userSpaceOnUse" x1="-5521.1699" y1="-792.528" x2="-5521.1699" y2="-962.6035" gradientTransform="matrix(1 0 0 -1 0 288)">
		<stop  offset="0" style="stop-color:#FFFFFF"/>
		<stop  offset="0.1857" style="stop-color:#E6E7E8"/>
		<stop  offset="0.3009" style="stop-color:#E1E3E7"/>
		<stop  offset="0.4043" style="stop-color:#D7DBE4"/>
		<stop  offset="0.5033" style="stop-color:#C8CFE0"/>
		<stop  offset="0.5995" style="stop-color:#B3C0DA"/>
		<stop  offset="0.6937" style="stop-color:#97ADD3"/>
		<stop  offset="0.7864" style="stop-color:#7798CA"/>
		<stop  offset="0.8762" style="stop-color:#4E83C1"/>
		<stop  offset="0.9282" style="stop-color:#2778BD"/>
		<stop  offset="0.9838" style="stop-color:#1C75BC"/>
		<stop  offset="0.9861" style="stop-color:#1E71B9"/>
		<stop  offset="0.99" style="stop-color:#2264B0"/>
		<stop  offset="0.9949" style="stop-color:#294EA2"/>
		<stop  offset="1" style="stop-color:#2E3192"/>
		<stop  offset="1" style="stop-color:#2E3192"/>
	</linearGradient>
	<path class="st0" d="M-6112,1140.2c0,0-6,18.3,26.1,15.3c50.8-4.7,50.5-18.5,50.5-18.5l44.4-15.9l5.6,12.4l30,9.1l35.7-19.5
		c0,0,28.8-46.5,41.3-42.3c77,25.4,67.1,6,78.6,4.9s49.7,15.7,49.7,15.7l29.6,23.5l14.5-13.2l15.5,8l21.1,25.3l1.9,2.8
		c0,0,26.6-7.5,39.8-6.4c19.2,8.4,39.3,11.8,39.3,11.8l38.1-1.3l57.9,15.5l38.9,2.8l34-4.4l37.7-6.9l38.9-3.6l24.9-9.6
		c0,0,16.9-9.1,28.2-9.8c11.3-0.6,33.2,7,33.2,7l10,6l27.8-21.2l37.8,13.2l7.2,9l27.3,11.5l15.8,3l61.1-8.9l19.4,3.9l29.2,3.9
		l38.3,14.1l39.8-6l46.8,8.5l13.1,3.1h10.8l22.6-9.1l26.7-0.6l18.3,0.7l0.8,38.3h197v33.2h-328.7v-0.4l-1159.4,1.2l-187.7,0.2
		c-151.8,21.1-153-46.1-153-46.1l184.9-25.1l86.1-57.3L-6112,1140.2z"/>
	<path class="st1" d="M-6244.4,1185.2c1.7,3.5-11.5-1.3-11.5-1.3l-11.5,6.6l-45.5,34.6c0,0,41.2-44.4,33.6-44
		c-199.2,10.3,72.8,19.3-134.2,27.3c-110,4.3,124.6-29,124.6-29l49.6-12C-6239.3,1167.4-6248.2,1177.4-6244.4,1185.2z"/>
	<path class="st2" d="M-5878.4,1080.3c1.7-0.3,11.1,3.5,54,15.4c15.9,2,20.4-9.2,25.3-11.1c4.8-1.8,48.3,15.6,48.3,15.6l23.2,22.5
		l6.1,5.6l15.2-14.3c0,0-15.3,23.9,0.6,35.7c38.4,16,20.1-28,20.1-28s15.3,27.6,23,26.7c8.6-8,33.6-7.3,33.6-7.3s-44.1,4.7-3.1,25.3
		c16.5,14,35.5-1.3,11.8-19.3c-23.1-17.5,28.5,6.6,28.5,6.6l40.5-2l46,14c0,0-40.1-17.2-85.6-2.1c-18.4,6-23.9,14.7-20.6,17.4
		c20.8,17.4,43.9-23.9,39.1,0.1c-0.6,3-16.5,25.6-67,24.4c37-28.1-120.7-77.1-18.3-12.4c13.9,8.8-125.9-19.6-125.9-19.6
		s142.6,49.8,74.9,2.1c0-1.4-125.2-20.5-125.2-20.5s98.6,3.9,132,17.1c16.3,8.1-39.2-19.2-34.4-18.7c18.7,2,18.7-6,18.7-6
		s-0.3-27.8-24.5-24c-36.3,8.3-23.5,23.9-7.9,28c-25.2,0-62.6-4-62.6-4s19.3-0.2,30.9-6.8c15-8.5,21.3-15.1,24.2-18.8
		c2.9-3.7,10-16.7,3.9-19.9c-74.8-39.5-60.7,31.2-23,15.5c-14.5,17.1-41,24-39.6,17.5C-5808.1,1098.1-5878.4,1080.3-5878.4,1080.3z"
		/>
	<path class="st3" d="M-4858.2,1173.4l-14,3.6l-17.3-1.5l-56.3-4.6l-38.7,6.9l-37.4-13.3l-15.2-2.8l-35.1-6.4l-57.5,8.6l-18.1-2.5
		l-23-9l-11.5-11.5c0,0-23.1-10.5-35.1-14.5c-1.9-0.6-12.7,6.4-21,16l-12.3,5.5l-3.6-5c0,0-26-7.1-34.5-7c-14.7,0.2-45.1,16-41.7,16
		c19.5-8.4,41.6-15.6,42.4-4.5c0.1,1.6,2.3,0.4-2.5,5.5c-2.9,3,12.2-3.5,17-0.4s2.4,8.9,2.4,8.9s-9.2,7.6-14.1,8.1
		c-2.8,0.3-9.4,1-46.8-14.8c-4.6-1.9,18.9,10.9,18.9,10.9l34.8,11.4l60-7.5c3.6-0.3-86.8,20.1-45-6c8-5,21-15,21-15s-4,11,5,6
		c23-14-2-9-2-9c42-39,45.1,24.5,10.8,27.6c-7.9,0.7,45.2-0.6,46.2-3.6c6.1-18.4,69.3,68.7,16-7c-7.2-10.2,15.7,2.5,35.1,5
		c106.9-24,11.9,16-14.1,7c12,10,57.3,14.5,57.3,14.5l20.1,3.5c0,0-45.6-8.3-36.9-15.9c24.7-21.6,108.1,13.9,29.7,12.9
		c-11.5-0.1-12.5,0.1-12.5,0.1l34.2,11.5c0,0,100.9,8.7,89.3-5.3c-125.7-8-84.4-61.8,4.8-3.3c-38.8-43.5,147.5,5,13.4,5.3
		c34.8,25.4,41.8,8,34.9,7.8c-4.3-0.1,37.2,3.4,37.2,3.4l53.7-6.6l14.6-22.5L-4858.2,1173.4z"/>
	<path class="st4" d="M-5884.6,1081.9c1-1.2-18.1,17.6-18.1,17.6l-14.9,22l-37.3,22.6c0,0,32.7-12.7,42.6-10.5s8,19.7,4,26.5
		s-42.3,19.9-42.3,19.9l61.7-9.9c0,0,14,3.7,3.3-5.7c-15-13-14.8-30.7-14-30c17,15,40.6,29.8,40.6,29.8l51.1-6.6c0,0,25,3.6,4.4,1.3
		c-58-6.6-85.4-29.6-85.4-29.6s-9-9-7.9-18C-5895.4,1099.4-5895.4,1094.9-5884.6,1081.9z"/>
	<path class="st5" d="M-5930.2,1173.6l-17.4-17.2c6,20-32.7,4.6-36.4-3.9c-8.1-18.5,31-7,31-7l-35.1-12.9l-5.2-10.4l-38.1,14.3
		l-3.7,1.7c0,0-1.4,7.6-17.2,13.5c-65.4,16.9-59.9-10.2-63.8-12c-22.7-10.7-48-19.7-48-19.7s-86.9,56.4-81.6,53.4
		c82.7-58.5,118-23,87-48.5c83.5,22-2.9,34.5-2.9,34.5c1,16.7,35.6,23,56.8,23c19.4,0,11.5-40.5,65.5-13c18,10.5,2.8,38.9,32.1,13.2
		c-39.7-15.4-30-33.1-16.6-33c44.8,0.3,22.6,21.4,22.6,21.4s13.7,8,47.3,8.9L-5930.2,1173.6z"/>
	
		<linearGradient id="SVGID_2_" gradientUnits="userSpaceOnUse" x1="-5612.2544" y1="-830.8248" x2="-5612.2544" y2="-1067.7157" gradientTransform="matrix(1 0 0 -1 0 288)">
		<stop  offset="0" style="stop-color:#FFFFFF"/>
		<stop  offset="0.1857" style="stop-color:#E6E7E8"/>
		<stop  offset="0.3115" style="stop-color:#E2E3E7"/>
		<stop  offset="0.4179" style="stop-color:#D8DBE4"/>
		<stop  offset="0.5173" style="stop-color:#C9D0E0"/>
		<stop  offset="0.6124" style="stop-color:#B5C1DB"/>
		<stop  offset="0.7045" style="stop-color:#9BAFD4"/>
		<stop  offset="0.7944" style="stop-color:#7B9ACB"/>
		<stop  offset="0.8807" style="stop-color:#5586C2"/>
		<stop  offset="0.9446" style="stop-color:#2778BD"/>
		<stop  offset="0.9924" style="stop-color:#1C75BC"/>
		<stop  offset="0.9934" style="stop-color:#1E71B9"/>
		<stop  offset="0.9953" style="stop-color:#2264B0"/>
		<stop  offset="0.9976" style="stop-color:#294EA2"/>
		<stop  offset="1" style="stop-color:#2E3192"/>
		<stop  offset="1" style="stop-color:#2E3192"/>
	</linearGradient>
	<path class="st6" d="M-6377.2,1215.1l148.7-20l47.5-29.7l37.5-8.4l28,24.4l93-1l15.4-0.2l77.6-1.1l26.2-5.3l71.2-18.8l98.6,12.2
		l15.3,2.7l52.2,24.3l36,4.9l2.5,12.6l41.4-23.6l18.7-14l51.1-9l35.9-29.2l44-16.9l46.8,21.6l5.8,9l20.1-11.5l22.3,7l31.7,21
		l18.3,7.5l-4,1l-9,3h24l29.1-2.2l37.4-2.5l42.6-13.3l12,20l61,10l49,3l12,3l-7-6c0,0,4,0,5-1c0,0,21-3,39,14c0.7,0.7,45-13,45-13
		l6.4,4.3l23.1,13c0,0,2.8,0.9,34.7-1.7c86-7.1,20.5-6.4,13.9-1.5l2.1,149.4l-1476.4,2.9L-6377.2,1215.1z"/>
	<path class="st1" d="M-5430.7,1187.9c59.7-19.5,38.1-49,38.1-49l8.6,9.5l19.4-10.5l19.4,7l33.1,22.5c0,0-25.4-21-41.7-20.3
		c-67.1,13.3-4.2,44.7-5.8,44.8C-5412.7,1197.4-5430.7,1187.9-5430.7,1187.9z"/>
	<g>
		<path class="st1" d="M-5152.5,1179.4c0,0-13-11-21-28c-39,35-113,23-113,23c-344,151,44,105,79,30c91-12,27-63-24,5
			c-3.6,4.8-98.3-23.7-50-28c101-9,0.8-2.4,37,7c23,6,78-44,83-7c1.3,9.8-46,18-46,18l-20,27l70-4c140.7,16.1,141.9,15.2,100,16
			c-12-8-143.7-46,33-20L-5152.5,1179.4z"/>
	</g>
	<path class="st1" d="M-5518.4,1165.9c26.6-21,32-27.6,35.3-30c5.3-3.9,46-17,48.2-17.5s43.9,22,43.9,22
		c-42.1-21.2,13.7,19.5-27.3-2.5c-26.6-13.5-21.5-19.4-42.5,1.6c-43.2,72.5,101.5-7.6,37.5,49.9c-52.5,17.5-61-11.1-63-18.4
		c43.5-57-53.4-11.9,0,8.6c10.8,4.2,28.4,14.8,43.5,17.8c44,8.7,28.6,24.9,7.2,24c-7.9-0.3-2.5,15.9-86.3-24.5
		c-44.6-21.5,18.7-25,18.7-25c-37.2-6.1-71.9,8.5-71.9,8.5l5.8-6.5C-5569.5,1173.9-5519.7,1166.9-5518.4,1165.9z"/>
	<path class="st1" d="M-6286.9,1208.2c-41.3,13.5-56.2,5.9-56.2,5.9c154.2-18.2-31,4.8-44.2,3.4c216.8-30-23.5-20.4,130-37.8
		c11.7-3.3,77.7-47.3,74.8-22.8c-7.4,6.3-79.9,69,7.2,34c76.7-30.8-20.6-37.6-39.6-2l-24.3,16.3L-6286.9,1208.2z"/>
	<path class="st1" d="M-5829.9,1156.4c-32.2,3.4-178.1,26.2-93.9,24.8c1.8,0-172.1,36.1-172.1,36.1l354-9c0,0-94.2-29.8-96.1-36.9
		c-1.9-7.1,23.4-9.3,27.1-9.8c23.2-1.3,90.7,8.8,90.7,8.8S-5796.8,1152.9-5829.9,1156.4z"/>
	
		<linearGradient id="SVGID_3_" gradientUnits="userSpaceOnUse" x1="-4065.8879" y1="-741.3842" x2="-4065.8879" y2="-969.5963" gradientTransform="matrix(1 0 0 -1 0 288)">
		<stop  offset="0" style="stop-color:#FFFFFF"/>
		<stop  offset="0.1857" style="stop-color:#E6E7E8"/>
		<stop  offset="0.3115" style="stop-color:#E2E3E7"/>
		<stop  offset="0.4179" style="stop-color:#D8DBE4"/>
		<stop  offset="0.5173" style="stop-color:#C9D0E0"/>
		<stop  offset="0.6124" style="stop-color:#B5C1DB"/>
		<stop  offset="0.7045" style="stop-color:#9BAFD4"/>
		<stop  offset="0.7944" style="stop-color:#7B9ACB"/>
		<stop  offset="0.8807" style="stop-color:#5586C2"/>
		<stop  offset="0.9446" style="stop-color:#2778BD"/>
		<stop  offset="0.9924" style="stop-color:#1C75BC"/>
		<stop  offset="0.9934" style="stop-color:#1E71B9"/>
		<stop  offset="0.9953" style="stop-color:#2264B0"/>
		<stop  offset="0.9976" style="stop-color:#294EA2"/>
		<stop  offset="1" style="stop-color:#2E3192"/>
		<stop  offset="1" style="stop-color:#2E3192"/>
	</linearGradient>
	<path class="st7" d="M-4653.4,1117.6c0,0-0.3,23.8,26.1,20.2c50.6-6.9,58.5-20.4,58.5-20.4l18.9-0.3l33.6-26.7l28.8,26.7l26.5-21.9
		c0,0,38.1-66.6,39.7-65.8c77,39,96.4,18,96.4,18l33.6,19.2l36.9-4.2c0,0,1.9,8,12.5,18.7c6.2,6.3,32.6,16,32.6,16l11.4,9.4l4-2.1
		c0,0,18.2,6,35.5,8c18.2,13,37.9,18,37.9,18l29,2.8l57.9,20.4l38.9,3.6l34-5.8l37.7-9.1l38.9-4.7l24.9-12.6c0,0,16.9-12,28.2-12.8
		c11.3-0.9,26.3,12,26.3,12l16.9,5.1l27.8-27.9l29.9,19.2l7.5,14.2l28.1,9.4l67.7-5c0,0,16.3-6.7,28.8-4c12.5,2.7,24.9,12,24.9,12
		s-1-4.7,21.1-2s43.2,24.3,43.2,24.3s21.4-5.8,32.6-7.7c32.1-5.3,45.1,2.7,45.1,2.7l15.8,6l9.1,2.7l17.3,52.7l25.9-56h16.3l1.8,42.8
		h197v43.7h-328.7v-0.5l-1159.4,1.6l-187.7,0.3c-41.5-82.2-159.5-56.2-159.5-56.2s138-67,180-35.7c2.9-1.5,97.6-77.3,97.6-77.3
		L-4653.4,1117.6z"/>
	<path class="st1" d="M-4820.2,1185.1c41.2-16.7,91-45.2,91-45.2l-75.5,47l-79.9,10.2c0,0,85.4-17.3,76.4-29.3
		c-17.2-22.9-80.3-7.3-176.3,30.7c-6.9,2.7,101.9-45,115-45c73,0,96-14,96-14S-4821.6,1185.6-4820.2,1185.1z"/>
	<path class="st8" d="M-4129.4,1148.5c30.4-16.5,45.4-8.3,63-4.3l-23.4-8.4l-40-8c0,0-57.6-36.7-1,5.3c16.1,11.9-32,28.7-40.3,21.3
		c-48.4-43,12-44.9,12-44.9l-24-7.5c0,0-14.3-2.5-16.5,7.5c-3.1-11-6-10.5-6-10.5s7.2,36.2-32.6,31.4
		c-27.8-36.7,10.6-30.7,10.6-30.7s-18.2-1.3-24.9-14c-4.6-8.7-1.9-24-1.9-24l-30.9,3.2c-6.5-4-38.8-21-38.8-21s-12.7,5.8-26.1,8.5
		c-10.8-4.5-67.4-25.7-69.1-25.3c0,0,47,27.3,55.6,36.8c68.4,75.3-35.3,52.5-50.4,38c-0.7,0,30.6,30.2,48.9,28
		c28.8-3.5,36-4.2,89.7,10.5c-21.1-9.3-38.4-28.7-2.9-40.7c24.2-5.1,28.8,34.7,28.8,34.7s-18.2-38-33.6-12
		c-2.9,7.3,59,47.9,42.6,37.3c-40.5-20.8-94.4-25.8-94.4-25.8s51.8,11.8,85.4,32.5c39.3,22,30.7,12.7,30.7,12.7s41.7,21.6,27.1,9.8
		c-110.8-89.5,47.1-43.2,11.9-2.9c19.5,60,63.2-16.8,60-19.5c-1.5-1.2-22.5,36-42,12C-4165.2,1174.6-4146.9,1158-4129.4,1148.5z
		 M-4289,1083.1c-1,11.3-1.9,16-16.3,31.3c-33.6,45.3-55.8-109.6-7.7-40.7C-4296.6,1097.1-4286.5,1053.5-4289,1083.1z"/>
	<path class="st9" d="M-3387.3,1214.4l-22.1-38.7c0,0-8.3-4.3-17.3-9.3c-20.1-11.3-59.5-4.7-59.5-4.7l-20.1,4.7
		c0,0-34.5-22.2-46-22.7c-18.2-0.7-24,1.3-24,1.3s3.8-6.7-18.2-11.3c-16.5-3.5-11.5,2.1-56.6,6.7c-7.8,0.8-14.6,2.7-25.9,3.3
		c-5.8,0-10.6-0.7-10.6-0.7l-31.7-8.7l-9.6-14c0,0-30.5-19.4-31.7-19.3c-1.7,0.1-14.7,10.7-23,23.3l-5.5,3l-14.4-5.5
		c0,0-15.7-10-24.2-9.8c-14.7,0.3-46.9,21.8-43.5,21.8c18.4-11,52.7-25.3,52.5-6.5c0,2.2,0,11-15.1,12.5c-4.2,0.4-7.6,1.5-1.4,4.5
		c9.4,4.5,25.2,1.1,25.2,1.1s-11.5,4.4-12.2,4.9c-2,1.4-30.2,6-48.7-13.7c-3.2-3.4,14.9,15.7,14.9,15.7s-16.8,26,14.9,25.3
		c31.7-0.7,52.8-13.3,52.8-13.3c3.6-0.4-30.8-5.9-12.9-19.7c2.2-1.7,5.7-4.8,9.3-3.8s12.2,12.5,12.2,12.5l1.7-17.5
		c29-45.8,84.6,21.2-3.6,29.9c-7.9,0.8,69.1-5.3,88.2,0c0,0-30.7-11.3-23.2-19.3c5.2-5.5,24.2-0.7,31.9,6.3c5.3,4.9,19.2,21,19.2,21
		l37.4,6h1.9c0,0-6.2,3.5-33.6-11.3c-13.4-12.7-10.6-20,3.8-20.7c13.7-0.6,13.4,18.7,26.9,6c28.2-26.6,64.4,3.6,49.9,22.7
		c-14.4,6-58.5,1.3-58.5,1.3l49.9,14.7c0,0,68.1,10.3,72.9-11c-68.1,28.7-59.5-17.7-47-29c0.5-0.5-2.5,7.1,1.9,13.3
		c1.5,2.1,12.2-24.2,28.8-8c16.3,16-11.6,24.3-8.6,24.7c58.5,7.3,11.5-35.3,16.3-9.3c23-21.3,92.1-9.3,90.2-6
		c-109.4-8,139.1,35.3-62.3,18.7c34.8,33.4,37.9,14,31,13.7c-4.3-0.2,52.2,8.6,52.2,8.6l53.7-8.6l7.9-21.6L-3387.3,1214.4z"/>
	<path class="st10" d="M-4419.4,1029.7c-1.1-0.8-21.8,34.3-21.8,34.3l-14.9,29l-28.5,24.7c0,0,24-11.7,33.9-8.7
		c9.9,3,9.9,26.5,4,34.9c-15.6,22-47.5,27.2-47.5,27.2s50.8-3.3,49.9-4c-44.1-4,20.3-13.8,19.4-14.2c-29.5-14-9-31.2-9.4-30.5
		c-8.6,14.5,31.7,25.5,31.7,25.5l49.4-9.5c0,0,31.8,7.1,11.2,4c-58-8.6-83.3-42.9-83.3-42.9s-4.7-5.3-6-17.2
		C-4436.4,1033.9-4321.6,1100.2-4419.4,1029.7z"/>
	<g>
		<path class="st11" d="M-4453.7,1151.9c0,0-1.4,6,6.5,4.5c-7.9,0-2.2-4.5-2.2-4.5c-0.7-0.7-6.5-4.4-7.2-5
			c-14.8-16.7-42.1-52.7-51.5-57c-13.9-6.4-5-7-39,27.2l-18.9,0.8l-2.2,2c0,0-5.8,3.3-21.6,11c-65.4,22.2-59.4-10.6-63.3-13
			c-22.7-14.1-53.2-29.5-53.2-29.5s-117.8,97.3-116.7,97.3c36.2-18.7,44.5-31.2,54.8-41.3c1.6-1.5-2.4,11.3-2.4,11.3
			c1-1.8,23-12.7,37.4-22c24.7-19.3-19.7-0.2-17-2.3c44.6-35,92.1-1.7,59.7-30c89.9,34.5,11.5,71.5-4.3,45
			c-12.9,37,48.9,47.3,79.9,55c10.1,2.5,58.7-8.4,47.5-8.5c-53.2-0.5-20.9-43.5-66.2-6c-5.2,4.3-19.3,2.5-20.1-7
			c-2.2-25.5,93-44.8,21.3-40.2c-3,0.2,51.3-5.8,58.5-13.8c-36.7,63-7.7,84.5,49.9,51.2c-55.6,13.3-49-43.3-47-41.3
			c12.5,12.7,24-15.3,24-15.3c34.5,28.7,34.5,50,34.5,50s1,2.7,17.8-0.1c0,0,16.4-2.4,26-6c13.5-5.1,14.5-8.5,14.1-11.8
			C-4454.4,1152.4-4453.7,1151.9-4453.7,1151.9z M-4541.2,1116.4c6.2-4,15.6-12.3,15.3-11.3c-4.1,14.3,5.8,8.1,6,8.8
			c7.9,24.5,7.2-16,23-3c10.3,8.5,20.9,20.5,33.3,36.8C-4512.5,1111.1-4461.6,1218.4-4541.2,1116.4z"/>
	</g>
	
		<linearGradient id="SVGID_4_" gradientUnits="userSpaceOnUse" x1="-4136.103" y1="-801.54" x2="-4136.103" y2="-1113.337" gradientTransform="matrix(1 0 0 -1 0 288)">
		<stop  offset="0" style="stop-color:#FFFFFF"/>
		<stop  offset="0.1857" style="stop-color:#E6E7E8"/>
		<stop  offset="0.1926" style="stop-color:#E2E3E7"/>
		<stop  offset="0.3441" style="stop-color:#ADBCD9"/>
		<stop  offset="0.4892" style="stop-color:#839FCD"/>
		<stop  offset="0.6239" style="stop-color:#628CC5"/>
		<stop  offset="0.7461" style="stop-color:#4680C0"/>
		<stop  offset="0.8515" style="stop-color:#317ABE"/>
		<stop  offset="0.9282" style="stop-color:#2778BD"/>
		<stop  offset="0.9838" style="stop-color:#1C75BC"/>
		<stop  offset="0.9861" style="stop-color:#1E71B9"/>
		<stop  offset="0.99" style="stop-color:#2264B0"/>
		<stop  offset="0.9949" style="stop-color:#294EA2"/>
		<stop  offset="1" style="stop-color:#2E3192"/>
		<stop  offset="1" style="stop-color:#2E3192"/>
	</linearGradient>
	<path class="st12" d="M-4890.5,1195.4c35-3,87.2-5.1,87.2-8l75.7-46.4l24.3-0.1c0,0-15.3,32.2,79.3,58.6
		c26.1,7.3,86.7-14.4,86.7-14.4l24.9-14l61-1.6c0,0-10.8,25.5,54,19.5c26-2.4,24.6-53.3,24.6-53.3s57.1,1.4,76.3,6.7
		c19.2,5.3,28.8,13.3,28.8,13.3l68.1,31.3l36.3,18.4l-18-18l21,21l51.9-42.3l44.2-8.8l45.5-45.6l44-22.3l26.9,19.7l21.4,23.1
		l23.8-13.6l21.6,9.9l29.7,31.3l27.8,5.2l8.6,6l-19.2,8l35.5-5.3l-14.4-2.7l50.3-8.5l43.7-6.8l23,9.1l33.3,10.6l78,11.7
		c0,0-1,2-1,1.3c0-2-18.2,3.3-18.2,3.3l23-0.7l41.2,6l32.6-12l90.2,8.7l6.7,6c0,0-11.1,19.4,21.1,20.7c22.4,0.9-11.6-7.8-18.2-1.3
		l-6.5,178.5l-1476.4,3.8C-4890.3,1401.3-4846.5,1211.4-4890.5,1195.4z"/>
	<path class="st1" d="M-3325,1225.1c-37.4,8.2-41.1-23.8-91.1-31.3c-44.1-6.7-99.8-0.7-94-28.7c4.8,20-39.3,32.3-39.3,32.3l41.2,6.3
		c0,0-30.7-10.7,17.3-16c213.9,22-153.5,38.7-194.7,25.3c-5.7-1.9,117,48,138.1,36c20.8-11.8,153.5-15.3,153.5-15.3L-3325,1225.1z"
		/>
	<g>
		<path class="st1" d="M-3583,1189.7l-135.5-32.4l-86.3,12.1c15.2-1.3,59.5-8.4,80.8-5c8.3,3.2,17.4,1.6,13.4,9.3
			c-9.1,17.7-248.4,28-248.4,28l270,15.7c0,0,257.7,33.9,213.4,5c-32.6-21.3-227.3-16-210.1-30.7c7.7-3.3,20.1,0,20.1,0
			C-3713.7,1164.2-3583,1189.7-3583,1189.7z"/>
	</g>
	<path class="st1" d="M-4058.8,1153.1c10.2-20.7,34.9-35.2,38.1-38.3c5.3-5.2,39.7-24.2,45.4-24.8c5.8-0.6,28.6,23.4,28.6,23.4
		s-23.3-9.7-26.7-9.6c-17.4,0.6-29,17.8-29,17.8s0.1,48.7,108.5,72c-69.1,88-24-20-113.2-42c-42.1-6.9-30.7,7.2-18,17.7
		c71.5,59.3,2.6,42.2-21.3,35.1c-11.6-3.5,45-3.5,16-31.1c-9.7-9.3-13.1-11.1-21.8-13.1c-34.5-4.7-66.2,19.3-66.2,19.3l9.6-14
		C-4108.6,1165.7-4059.5,1154.6-4058.8,1153.1z"/>
	<path class="st1" d="M-4034.8,1165.7c-17.3-9.3-89.2-9.3-63.7,23.3c50.9,65.1-70.6,30.7-70.6,30.7l50.6-54.7
		C-4118.5,1165-4047.2,1147.1-4034.8,1165.7z"/>
	<path class="st1" d="M-4376.2,1138.4c-25.6,10-25.9,28.7-113.2,32.7c-1.8,0.1,61.4,24.7-79.6,33.3l303,15.6l103.7-7.6
		c0,0-106.5-50.5-123-56.5c0,0,61.1,29.5,5,36c-24.5-0.5-18.5,11-21.6,10c-35.3-11.9-70.5-24.5-70.5-42.2c0-9.5,10.7-14.1,14.4-14.7
		c42.2-14.7,102.9,19.3,102.9,19.3S-4319.9,1116.4-4376.2,1138.4z"/>
	<path class="st1" d="M-3912,1155.7c-1.9-6.4-51.9-59.1-31.7-39.8l17,14.7l25.9-11.8l18.2,10.2l26.6,26.5c0,0-66.6-62.9-43.6,1
		c1,2.7-21.1,20-21.1,20L-3912,1155.7z"/>
	<path class="st1" d="M-4874.9,1209.1l127.8-20.1l19.4-1.5c122.2,10.4,139.2,11.7,111.6,6.9c-2.9-0.5-89.4-6.9-94-9.3l0.5-0.7
		c0,0,13.9,0.7,12-1.3c-18.2-9.3-28.8-24-28.8-24s-1.9,7.3,2.9,16.7c2.2,4.3-8.6-7.1-11.5-8.7c-5-14.1,5.5-26.3,5.5-26.3
		c0.7-0.5-20.4,31.2-134.1,50.7c58-18,23-36-91.6-1.5c-9.8,3-30,13.3-39.7,17.8c45.1-20,187.3-41.3,107.5-12.7"/>
</g>
<g>
	<polygon class="st13" points="-3532.8,2182.7 -3538.8,2111.3 -3552.8,1920.7 -3552.8,2111.3 -3568.7,2099.4 -3572.7,1968.4 
		-3586.2,2066.7 -3582.7,1813.6 -3598.6,1670.6 -3596.5,2108.6 -3618.6,2123.2 -3628.5,1908.8 -3636.5,2111.3 -3664.4,2111.3 
		-3672.4,1742.1 -3682.4,2099.4 -3706.3,2099.4 -3716.3,1587.3 -3724.2,2039.8 -3736.2,1801.6 -3736.2,2083 -3740.2,2102.2 
		-3742.2,2103.6 -3758.7,2111.3 -3770.4,2111.3 -3776.1,1908.8 -3776.7,1931.6 -3777.4,1908.8 -3783.3,2111.3 -3788.4,2111.3 
		-3789.5,2088.6 -3798.4,1880.5 -3809.2,2045.3 -3811.2,1931.7 -3816.3,2036.3 -3817.6,1761.7 -3827.8,1604.8 -3825.3,1922.3 
		-3831.5,2039.8 -3846.1,1899.1 -3847,1866.3 -3852.1,2088.6 -3870,2088.6 -3879.5,1950 -3893,2075.6 -3896.8,2075.6 
		-3908.3,2010.2 -3916,2075.6 -3924,2085.2 -3931.2,1908.8 -3938.4,2057.7 -3942.6,1868.4 -3945.4,2088.6 -3953.1,2088.6 
		-3963.3,2088.6 -3967.8,2050.4 -3979,1813.6 -3981.1,2063.7 -3989.4,1968.4 -3991,2019 -3999.9,2079.3 -4010.7,1928.1 
		-4022.3,2079.3 -4022.6,2079.3 -4027.4,1857 -4032.2,2092.4 -4059.7,2066.2 -4059.7,1739.3 -4069.4,2000.8 -4083.9,2066.2 
		-4103.3,2066.2 -4111.4,1673.9 -4117.8,2079.3 -4131.8,2079.3 -4135.2,1968.4 -4141.5,2041.9 -4144.3,1944.4 -4145.4,1813.6 
		-4153.1,1752 -4155.9,2091.8 -4175.9,2079.3 -4171.1,1595.4 -4184,1752.4 -4185.6,2027 -4189.9,1957.7 -4192.2,1908.8 
		-4198.7,2069.6 -4208.2,2079.3 -4208.2,1870.1 -4219.5,2079.3 -4221.5,2111.3 -4228.9,2111.3 -4237,1742.1 -4247.2,2099.4 
		-4271.6,2099.4 -4281.8,1587.3 -4290,2039.8 -4302.2,1801.6 -4302.2,2099.4 -4336.8,2123.2 -4342.9,1908.8 -4349,2111.3 
		-4361.2,2111.3 -4371.4,1587.3 -4377.5,2111.3 -4389.7,2051.7 -4394.2,2060.2 -4394.3,2051.7 -4398.8,2069 -4410.1,2090.4 
		-4417.6,1587.3 -4430.5,2111.3 -4446,2111.3 -4453.8,1908.8 -4461.5,2123.2 -4505.5,2099.4 -4505.5,1801.6 -4521,2039.8 
		-4531.3,1587.3 -4544.2,2099.4 -4575.2,2099.4 -4588.1,1742.1 -4598.5,2111.3 -4607.8,2111.3 -4610.3,2079.3 -4624.7,1870.1 
		-4624.7,2079.3 -4636.8,2069.6 -4645,1908.8 -4647.9,1957.7 -4653.4,2027 -4655.4,1752.4 -4671.8,1595.4 -4665.7,2079.3 
		-4691.2,2091.8 -4694.7,1752 -4704.4,1813.6 -4705.8,1944.4 -4709.4,2041.9 -4717.3,1968.4 -4721.7,2079.3 -4739.4,2079.3 
		-4747.6,1673.9 -4757.9,2066.2 -4782.5,2066.2 -4800.9,2000.8 -4813.2,1739.3 -4813.2,2066.2 -4848.1,2092.4 -4854.2,1857 
		-4860.4,2079.3 -4860.7,2079.3 -4875.4,1928.1 -4889.1,2079.3 -4900.4,2019 -4902.4,1968.4 -4913,2063.7 -4915.6,1813.6 
		-4929.9,2050.4 -4935.6,2088.6 -4948.6,2088.6 -4958.3,2088.6 -4963.2,1866.3 -4967.1,2057.7 -4976.3,1908.8 -4985.5,2085.2 
		-4995.6,2075.6 -5005.3,2010.2 -5019.9,2075.6 -5024.8,2075.6 -5042,1950 -5054,2088.6 -5076.7,2088.6 -5083.2,1866.3 
		-5084.3,1899.1 -5102.9,2039.8 -5110.7,1922.3 -5107.5,1604.8 -5120.5,1761.7 -5122.1,2036.3 -5128.6,1931.7 -5131.1,2045.3 
		-5144.9,1880.5 -5156.2,2088.6 -5157.6,2111.3 -5164,2111.3 -5171.5,1908.8 -5172.4,1931.6 -5173.2,1908.8 -5180.4,2111.3 
		-5195.2,2111.3 -5216.2,2103.6 -5218.7,2102.2 -5223.8,2083 -5223.8,1801.6 -5239,2039.8 -5249.1,1587.3 -5261.8,2099.4 
		-5292.2,2099.4 -5304.8,1742.1 -5314.9,2111.3 -5350.4,2111.3 -5360.5,1908.8 -5373.1,2123.2 -5401.2,2108.6 -5398.4,1670.6 
		-5418.7,1813.6 -5414.3,2066.7 -5431.3,1968.4 -5436.4,2099.4 -5454.2,2109.9 -5455.5,2039.3 -5456.6,2043.6 -5456.6,1920.7 
		-5471.3,2078.7 -5478.8,1574.9 -5491.7,2098.9 -5507.2,2098.9 -5515,1896.4 -5522.7,2110.8 -5566.6,2087 -5566.6,1789.2 
		-5582.1,2027.4 -5592.5,1574.9 -5605.4,2087 -5636.4,2087 -5649.3,1729.7 -5659.7,2098.9 -5669,2098.9 -5671.5,2066.9 
		-5685.9,1857.7 -5685.9,2066.9 -5698,2057.2 -5706.2,1896.4 -5709.1,1945.2 -5714.6,2014.6 -5716.6,1740 -5733,1583 
		-5726.9,2066.9 -5752.3,2079.4 -5755.9,1739.6 -5765.6,1801.1 -5767,1932 -5770.6,2029.5 -5778.5,1956 -5782.9,2066.9 
		-5800.6,2066.9 -5808.8,1661.5 -5819.1,2053.8 -5843.7,2053.8 -5862.1,1988.4 -5874.4,1726.9 -5874.4,2053.8 -5909.2,2080 
		-5915.4,1844.6 -5921.5,2066.9 -5921.9,2066.9 -5936.5,1915.7 -5950.2,2066.9 -5961.6,2006.6 -5963.6,1956 -5974.2,2051.2 
		-5976.8,1801.1 -5991.1,2038 -5996.8,2076.2 -6009.8,2076.2 -6005.4,2070 -6026,1801.7 -6028.3,2045.3 -6037.5,1896.4 
		-6046.7,2072.8 -6056.8,2063.2 -6066.5,1997.8 -6081.1,2063.2 -6086,2063.2 -6103.2,1937.6 -6115.2,2076.2 -6137.9,2076.2 
		-6144.4,1853.9 -6145.5,1886.7 -6164.1,2027.4 -6171.9,1909.9 -6168.7,1592.4 -6181.7,1749.3 -6183.3,2023.9 -6189.8,1919.3 
		-6192.3,2032.9 -6206,1868.1 -6217.3,2076.2 -6218.7,2098.9 -6225.2,2098.9 -6232.7,1896.4 -6233.5,1919.2 -6234.4,1896.4 
		-6241.6,2098.9 -6256.4,2098.9 -6277.4,2091.2 -6279.9,2089.8 -6285,2070.6 -6285,1789.2 -6300.2,2027.4 -6310.3,1574.9 
		-6323,2087 -6353.3,2087 -6366,1729.7 -6376.1,2098.9 -6411.5,2098.9 -6421.7,1896.4 -6434.3,2110.8 -6462.4,2096.2 
		-6459.6,1658.2 -6479.9,1801.1 -6475.4,2054.3 -6492.5,1956 -6497.6,2087 -6512.2,2094.8 -6523,1907.2 -6535.5,2098.9 
		-6543.1,2170.3 -6295.9,2178.3 -6296,2182.2 -6233.5,2180.3 -6173.7,2182.2 -6173.7,2178.5 -5910.9,2170.3 -5912.4,2156.2 
		-5828.3,2152.5 -5830.2,2170.3 -5481.8,2181.3 -5482,2182.7 -5234.7,2190.7 -5234.8,2194.7 -5172.4,2192.7 -5112.5,2194.7 
		-5112.5,2190.9 -4849.7,2182.7 -4851.3,2168.6 -4767.1,2164.9 -4769,2182.7 -4464,2192.4 -4466.3,2196.8 -4401.4,2194.4 
		-4391.8,2194.7 -4391.8,2194 -4094.5,2182.7 -4096,2164.9 -4029.7,2168.6 -4031,2182.7 -3823.9,2190.9 -3823.9,2194.7 
		-3776.7,2192.7 -3727.6,2194.7 -3727.6,2190.7 	"/>
	<polygon class="st14" points="-3541.5,2192.1 -3547.5,2120.6 -3553.9,1928.9 -3561.4,2120.6 -3577.4,2108.7 -3575.5,1972.3 
		-3594.8,2076 -3591.3,1822.9 -3601.5,1674.5 -3605.1,2118 -3627.2,2132.5 -3631.8,1911.8 -3645.2,2120.6 -3673.1,2120.6 
		-3675.2,1742.8 -3691,2108.7 -3715,2108.7 -3718.5,1590.8 -3732.9,2049.1 -3738,1809.5 -3744.9,2092.3 -3748.9,2111.5 
		-3750.9,2112.9 -3767.4,2120.6 -3779.1,2120.6 -3779.1,1939.7 -3779.1,1905.6 -3784.5,1958.4 -3792,2120.6 -3797.1,2120.6 
		-3798.2,2097.9 -3800.8,1880.8 -3814.8,2051.4 -3812.7,1935.1 -3825,2045.6 -3826.3,1771 -3828.9,1610.9 -3834,1931.6 
		-3840.1,2049.1 -3848.4,1866.8 -3856,1938.2 -3860.8,2097.9 -3878.7,2097.9 -3888.1,1959.3 -3901.7,2084.9 -3905.5,2084.9 
		-3917,2019.5 -3924.7,2084.9 -3932.6,2094.5 -3934,1913.4 -3947.1,2067 -3944.8,1871.5 -3959.9,2097.9 -3961.7,2097.9 
		-3971.9,2097.9 -3976.4,2059.7 -3981.6,1818.8 -3989.8,2073 -3998.1,1977.7 -3999.7,2028.3 -4008.6,2088.6 -4014.1,1930.4 
		-4031,2088.6 -4031.2,2088.6 -4029.2,1857.5 -4040.9,2101.7 -4068.4,2075.5 -4061.7,1742.8 -4078,2010.1 -4092.6,2075.5 
		-4112,2075.5 -4113.7,1680.7 -4126.5,2088.6 -4140.4,2088.6 -4143.9,1977.7 -4150.2,2051.2 -4153,1953.7 -4150.5,1820.3 
		-4155.9,1761.4 -4164.5,2101.1 -4184.6,2088.6 -4174.3,1600.1 -4192.7,1761.7 -4194.3,2036.3 -4198.6,1967 -4200.9,1918.1 
		-4207.4,2078.9 -4216.9,2088.6 -4216.9,1879.4 -4228.2,2088.6 -4230.2,2120.6 -4237.5,2120.6 -4245.7,1751.4 -4255.9,2108.7 
		-4280.3,2108.7 -4283.7,1590.8 -4298.6,2049.1 -4304.3,1807.9 -4310.8,2108.7 -4345.4,2132.5 -4351.6,1918.1 -4357.7,2120.6 
		-4369.9,2120.6 -4373.6,1590.8 -4386.2,2120.6 -4398.4,2061.1 -4402.8,2069.5 -4403,2061.1 -4407.5,2078.3 -4418.8,2099.7 
		-4420.2,1592.3 -4439.2,2120.6 -4454.7,2120.6 -4457,1911.8 -4470.2,2132.5 -4514.1,2108.7 -4507.9,1798.6 -4529.6,2049.1 
		-4533.9,1590.8 -4552.9,2108.7 -4583.9,2108.7 -4590.2,1753.6 -4607.1,2120.6 -4616.5,2120.6 -4619,2088.6 -4627,1873 
		-4633.3,2088.6 -4645.4,2078.9 -4648.6,1910.3 -4656.6,1967 -4662,2036.3 -4664.1,1761.7 -4673.5,1600.1 -4674.3,2088.6 
		-4699.8,2101.1 -4698.4,1753.6 -4707.1,1825 -4714.4,1953.7 -4718,2051.2 -4726,1977.7 -4730.4,2088.6 -4748.1,2088.6 
		-4749.3,1671.4 -4766.6,2075.5 -4791.1,2075.5 -4809.6,2010.1 -4815.4,1750.5 -4821.9,2075.5 -4856.7,2101.7 -4857.6,1865.3 
		-4869,2088.6 -4869.4,2088.6 -4879.3,1930.4 -4897.7,2088.6 -4909.1,2028.3 -4911.1,1977.7 -4921.7,2073 -4918.3,1825 
		-4938.6,2059.7 -4944.3,2097.9 -4957.2,2097.9 -4967,2097.9 -4965.9,1869.9 -4975.8,2067 -4978.9,1913.4 -4994.1,2094.5 
		-5004.3,2084.9 -5010.3,2014.2 -5028.6,2084.9 -5033.4,2084.9 -5045,1955.3 -5062.7,2097.9 -5085.4,2097.9 -5086.1,1876.2 
		-5091.5,1914.9 -5111.6,2049.1 -5119.4,1931.6 -5109.9,1610.9 -5129.1,1771 -5130.8,2045.6 -5137.3,1941 -5139.8,2054.6 
		-5147.8,1887 -5164.8,2097.9 -5166.2,2120.6 -5172.7,2120.6 -5176.6,1964.5 -5174.4,1910.2 -5180.3,1928.9 -5189,2120.6 
		-5203.9,2120.6 -5224.9,2112.9 -5227.4,2111.5 -5232.5,2092.3 -5226.9,1806.4 -5247.7,2049.1 -5251.8,1590.8 -5270.4,2108.7 
		-5300.8,2108.7 -5307,1752.1 -5323.6,2120.6 -5359,2120.6 -5369.1,1918.1 -5381.8,2132.5 -5409.8,2118 -5402.3,1677.6 
		-5422.9,1812.6 -5422.9,2076 -5440,1977.7 -5445.1,2108.7 -5462.9,2119.2 -5464.2,2048.6 -5465.3,2053 -5465.3,1930 -5480,2088 
		-5481.3,1578.4 -5500.4,2108.2 -5515.9,2108.2 -5523.6,1905.7 -5531.4,2120.1 -5575.3,2096.3 -5570.1,1792.4 -5590.8,2036.7 
		-5595,1579.9 -5614.1,2096.3 -5645.1,2096.3 -5652.4,1744.3 -5668.3,2108.2 -5677.7,2108.2 -5680.2,2076.2 -5694.5,1867 
		-5694.5,2076.2 -5706.6,2066.5 -5714.8,1905.7 -5717.8,1954.5 -5723.2,2023.9 -5725.3,1749.3 -5733.6,1589.2 -5735.5,2076.2 
		-5761,2088.7 -5759.6,1745.9 -5771.5,1811 -5770.5,1944.4 -5779.2,2038.8 -5787.2,1965.3 -5791.6,2076.2 -5809.3,2076.2 
		-5811.6,1665.2 -5827.7,2063.1 -5852.3,2063.1 -5870.8,1997.7 -5875.5,1741.2 -5883.1,2063.1 -5917.9,2089.3 -5924.1,1853.9 
		-5930.2,2076.2 -5930.5,2076.2 -5945.2,1925 -5958.9,2076.2 -5970.2,2015.9 -5972.3,1965.3 -5982.8,2060.6 -5979.4,1811 
		-5999.8,2047.3 -6005.5,2085.5 -6018.4,2085.5 -6028.2,2085.5 -6027.1,1798.6 -6041.2,2053 -6040.1,1894.8 -6055.3,2082.1 
		-6065.5,2072.5 -6075.2,2007.1 -6089.8,2072.5 -6094.6,2072.5 -6106.1,1939.7 -6123.8,2085.5 -6146.5,2085.5 -6153,1863.2 
		-6154.2,1896 -6172.7,2036.7 -6180.5,1919.2 -6172.2,1601.6 -6190.3,1758.6 -6192,2033.2 -6198.4,1928.6 -6201,2042.2 
		-6214.7,1877.4 -6226,2085.5 -6227.4,2108.2 -6233.8,2108.2 -6236.1,1919.6 -6233.9,1897.9 -6242.6,1941.3 -6261.4,2097.7 
		-6265.1,2108.2 -6286,2100.5 -6288.6,2099.1 -6293.7,2079.9 -6287,1792.4 -6308.9,2036.7 -6313,1584.6 -6331.6,2096.3 
		-6362,2096.3 -6368.2,1750.5 -6384.8,2108.2 -6420.2,2108.2 -6424.5,1901 -6443,2120.1 -6471,2105.5 -6463.5,1659 -6480.8,1803.3 
		-6484.1,2063.6 -6501.2,1965.3 -6506.2,2096.3 -6526.5,2108.2 -6524.1,1910.3 -6544.2,2108.2 -6551.8,2179.6 -6304.5,2187.6 
		-6304.6,2191.6 -6242.2,2189.6 -6182.3,2191.6 -6182.4,2187.8 -5919.5,2179.6 -5921.1,2165.5 -5836.9,2161.8 -5838.9,2179.6 
		-5490.5,2190.6 -5490.6,2192.1 -5243.4,2200 -5243.4,2204 -5181,2202 -5121.1,2204 -5121.2,2200.2 -4858.4,2192.1 -4859.9,2177.9 
		-4775.8,2174.2 -4777.7,2192.1 -4472.6,2201.7 -4475,2206.1 -4410,2203.7 -4400.4,2204 -4400.4,2203.3 -4103.2,2192.1 
		-4104.7,2174.2 -4038.4,2177.9 -4039.6,2192.1 -3832.5,2200.2 -3832.6,2204 -3785.4,2202 -3736.2,2204 -3736.3,2200 	"/>
</g>
<g>
	<path class="st15" d="M-6375.5,1213.7l100.9-11.7l82,10.5l35.6-20.3l61.1,4.6l76.1-6.5l60,3l60-12l63.1-4.4l11.9,1.4l68.2,14.9
		l110.5-2.9l41,5.3c0,0,18.2,17.6,50.4,6.9c30-10,67,9,67,9l43-17l21,6l-5.9-12.5l16.9-3.5l48.5,4.2l24.7-1.4l26.2,2.6l26.2,4.8
		l40.7,5.1l53.8-1.4l46.5-2.6l23.3,3.4l34.9,3.4l45.1,2.2l59.7,5.9l24.7-1.6l18.9-1.9l26.2,2.2l30.5,2.4l32-0.5l21.9,0.6l1.8,61.4
		l-1546.8,1.2L-6375.5,1213.7z"/>
	<path class="st16" d="M-4913,1219.4l-88.5,0.5l-47.4-6.5l-77.3-7.4l-63.8,9.2l-79.4-6.5l-23.1-0.9c0,0-33.5-7.2-56.1-8.3
		c-71.4-3.6-1.5,11.5-71.1,14.8c-40.2,1.9-31-17-68-14c-6.5,0.5-5,13-46.7,13.6c-21.8,0.3-65.3,3.2-65.3,3.2l-25.4-4.7l-43.2-9
		l-63.8,1.1l-34.9-7.5l-26.2-3.3l-16,1.6l-32,2.6l-24.7-1.4l-26.2,2.6l-26.2,4.7l-40.7,4.9l-53.8-1.4l-46.5-2.6l-23.3,3.3l-34.9,3.3
		l-45.1,2.1l-48,4.7l-44.6-5.7l-7.1,0l-29,2.8l-31.4,5l-32-0.5l-21.9,8.7l-1.8,51.4l1546.8,1.2l-5.8-6.8"/>
	<path class="st15" d="M-4919.5,1208.9c0,0,34.2,0,63.8-0.4s115-18,115-18s18.1-4.1,45.1-2.2s61.1,6,61.1,6l81.5,5.4l78.6-1.6
		l49-11.5l64.3-2.8l65.2-0.7l0.8,6.4l104.3,16.8c0,0,33.9,6,46.6,3.2s31.5-21.2,55.1-18.8c23.6,2.4,32.2,7.6,32.2,7.6l71.2-4
		l14.1-6.8c0,0,3.5-9.1,14-10s22.9,2.5,22.9,2.5l32,3.5l24.7-1.9l26.2,3.5l26.2,6.3l40.7,6.6l53.8-1.9c0,0,30.1-3.9,46.6-3.5
		s23.3,4.4,23.3,4.4l34.9,4.4l45.1,2.8l45.1,11.2l42-3c0,0,20.4-9.2,32.7-11.4c12.3-2.1,29.7,5.6,29.7,5.6l17.3-3.5l25.2,9.6
		l21.9,0.8l1.8,80.9l-1546.8,1.6l0.7-67.7"/>
	<path class="st16" d="M-4916.9,1301.2l0,2.7l1546.8,1.5l-0.8-76.9l-88-3.6h-81.2l-47.4-8.5l-77.3-9.7l-63.8,12.2l-79.4-8.5
		l-23.1-1.2c0,0-33.8-7.3-56.1-10.9s-30,15.8-62.8,15.8s-59.9-10.9-74.4-7.3c-14.5,3.6-31.6,8.8-64,4.3c-21.5-3-49.8,10.3-49.8,10.3
		l-37.8,2.4l-48-11.3l-67.3-8.9l-20.4-3.1l-22,6h-22l-6.8-1.4l-41.9-10.7l-26.2,3.4l-18.2,11.8c0,0-41.9,15.9-68.9,7.9
		c-13.1-3.9-40-7-40-7l-41-2l-50.9-3.4l-23.7,10.5l-27.9,0.9l-48,6.1l-32.3-12.3l-19.3,4.9l-29,3.6l-36.9,0.4l-16.3-3.5l-33.7,3.7"
		/>
</g>
<g>
	<g>
		
			<linearGradient id="SVGID_5_" gradientUnits="userSpaceOnUse" x1="-1261.7996" y1="-2345.6772" x2="-1261.7996" y2="-2515.7544" gradientTransform="matrix(1 0 0 -1 0 288)">
			<stop  offset="0" style="stop-color:#FFFFFF"/>
			<stop  offset="5.850000e-02" style="stop-color:#F5F5F5"/>
			<stop  offset="0.1854" style="stop-color:#EAEBEC"/>
			<stop  offset="0.3051" style="stop-color:#E6E7E8"/>
			<stop  offset="0.3625" style="stop-color:#DDE0E5"/>
			<stop  offset="0.9282" style="stop-color:#2778BD"/>
			<stop  offset="0.9838" style="stop-color:#1C75BC"/>
			<stop  offset="0.9861" style="stop-color:#1E71B9"/>
			<stop  offset="0.99" style="stop-color:#2264B0"/>
			<stop  offset="0.9949" style="stop-color:#294EA2"/>
			<stop  offset="1" style="stop-color:#2E3192"/>
			<stop  offset="1" style="stop-color:#2E3192"/>
		</linearGradient>
		<path class="st17" d="M-1852.6,2693.3c0,0-6,18.3,26.1,15.3c50.8-4.7,50.5-18.5,50.5-18.5l44.4-15.9l5.6,12.4l30,9.1l35.7-19.5
			c0,0,28.8-46.5,41.3-42.3c77,25.4,67.1,6,78.6,4.9c11.6-1.1,49.7,15.7,49.7,15.7l29.6,23.5l14.5-13.2l15.5,8l21.1,25.3l1.9,2.8
			c0,0,26.6-7.5,39.8-6.4c19.2,8.4,39.3,11.8,39.3,11.8l38.1-1.3l57.9,15.5l38.9,2.8l34-4.4l37.7-6.9l38.9-3.6l24.9-9.6
			c0,0,16.9-9.1,28.2-9.8c11.3-0.6,33.2,7,33.2,7l10,6l27.8-21.2l37.8,13.2l7.2,9l27.3,11.5l15.8,3l61.1-8.9l19.4,3.9l29.2,3.9
			l38.3,14.1l39.8-6l46.8,8.5l13.1,3.1h10.8l22.6-9.1l26.7-0.6l18.3,0.7l0.8,38.3h197v33.2h-328.7v-0.4l-1159.4,1.2l-187.7,0.2
			c-151.8,21.1-152.9-46.1-152.9-46.1l184.9-25.1l86.1-57.3L-1852.6,2693.3z"/>
		<path class="st1" d="M-1985,2738.4c1.7,3.5-11.5-1.3-11.5-1.3l-11.5,6.6l-45.5,34.6c0,0,41.2-44.4,33.6-44
			c-199.2,10.3,72.8,19.3-134.2,27.3c-110,4.3,124.6-29,124.6-29l49.6-12C-1979.9,2720.5-1988.8,2730.5-1985,2738.4z"/>
		<path class="st1" d="M-1619.1,2633.4c1.7-0.3,11.1,3.5,54,15.4c15.9,2,20.4-9.2,25.3-11.1s48.3,15.6,48.3,15.6l23.2,22.5l6.1,5.6
			l15.2-14.3c0,0-15.3,23.9,0.6,35.7c38.4,16,20.1-28,20.1-28s15.3,27.6,23,26.7c8.6-8,33.6-7.3,33.6-7.3s-44.1,4.7-3.1,25.3
			c16.5,14,35.5-1.3,11.8-19.3c-23.1-17.5,28.5,6.6,28.5,6.6l40.5-2l46,14c0,0-40.1-17.2-85.6-2.1c-18.4,6-23.9,14.7-20.6,17.4
			c20.8,17.4,43.9-23.9,39.1,0.1c-0.6,3-16.5,25.6-67,24.4c37-28.1-120.7-77.1-18.3-12.4c13.9,8.8-125.9-19.6-125.9-19.6
			s142.6,49.8,74.9,2.1c0-1.4-125.2-20.5-125.2-20.5s98.6,3.9,132,17.1c16.3,8.1-39.2-19.2-34.4-18.7c18.7,2,18.7-6,18.7-6
			s-0.3-27.8-24.5-24c-36.3,8.3-23.5,23.9-7.9,28c-25.2,0-62.6-4-62.6-4s19.3-0.2,30.9-6.8c15-8.5,21.3-15.1,24.2-18.8
			s10-16.7,3.9-19.9c-74.8-39.5-60.7,31.2-23,15.5c-14.5,17.1-41,24-39.6,17.5C-1548.7,2651.2-1619.1,2633.4-1619.1,2633.4z"/>
		<path class="st1" d="M-598.9,2726.5l-14,3.6l-17.3-1.5l-56.3-4.6l-38.7,6.9l-37.4-13.3l-15.2-2.8l-35.1-6.4l-57.5,8.6l-18.1-2.5
			l-23-9l-11.5-11.5c0,0-23.1-10.5-35.1-14.5c-1.9-0.6-12.7,6.4-21,16l-12.3,5.5l-3.6-5c0,0-26-7.1-34.5-7
			c-14.7,0.2-45.1,16-41.7,16c19.5-8.4,41.6-15.6,42.4-4.5c0.1,1.6,2.3,0.4-2.5,5.5c-2.9,3,12.2-3.5,17-0.4s2.4,8.9,2.4,8.9
			s-9.2,7.6-14.1,8.1c-2.8,0.3-9.4,1-46.8-14.8c-4.6-1.9,18.9,10.9,18.9,10.9l34.8,11.4l60-7.5c3.6-0.3-86.8,20.1-45-6
			c8-5,21-15,21-15s-4,11,5,6c23-14-2-9-2-9c42-39,45.1,24.5,10.8,27.6c-7.9,0.7,45.2-0.6,46.2-3.6c6.1-18.4,69.3,68.7,16-7
			c-7.2-10.2,15.7,2.5,35.2,5c106.8-24,11.8,16-14.2,7c12,10,57.3,14.5,57.3,14.5l20.1,3.5c0,0-45.6-8.3-36.9-15.9
			c24.7-21.6,108.1,13.9,29.7,12.9c-11.5-0.1-12.5,0.1-12.5,0.1l34.2,11.5c0,0,100.9,8.7,89.3-5.3c-125.7-8-84.4-61.8,4.8-3.3
			c-38.8-43.5,147.5,5,13.4,5.3c34.8,25.4,41.8,8,34.9,7.8c-4.3-0.1,37.2,3.4,37.2,3.4l53.7-6.6l14.6-22.5L-598.9,2726.5z"/>
		<path class="st1" d="M-1625.2,2635c1-1.2-18.1,17.6-18.1,17.6l-14.9,22l-37.3,22.6c0,0,32.7-12.7,42.6-10.5c9.9,2.3,8,19.7,4,26.5
			s-42.3,19.9-42.3,19.9l61.7-9.9c0,0,14,3.7,3.3-5.7c-15-13-14.8-30.7-14-30c17,15,40.6,29.8,40.6,29.8l51.1-6.6
			c0,0,25,3.6,4.4,1.3c-58-6.6-85.4-29.6-85.4-29.6s-9-9-7.9-18C-1636,2652.5-1636,2648-1625.2,2635z"/>
		<path class="st1" d="M-1670.8,2726.7l-17.4-17.2c6,20-32.7,4.6-36.4-3.9c-8.1-18.5,31-7,31-7l-35.1-12.9l-5.2-10.4l-38.1,14.3
			l-3.7,1.7c0,0-1.4,7.6-17.2,13.5c-65.4,16.9-59.9-10.2-63.8-12c-22.7-10.7-48-19.7-48-19.7s-86.9,56.4-81.6,53.4
			c82.7-58.5,118-23,87-48.5c83.5,22-2.9,34.5-2.9,34.5c1,16.7,35.6,23,56.8,23c19.4,0,11.5-40.5,65.5-13
			c18,10.5,2.8,38.9,32.1,13.2c-39.7-15.4-30-33.1-16.6-33c44.8,0.3,22.6,21.4,22.6,21.4s13.7,8,47.3,8.9L-1670.8,2726.7z"/>
		
			<linearGradient id="SVGID_6_" gradientUnits="userSpaceOnUse" x1="-1352.885" y1="-2383.9753" x2="-1352.885" y2="-2620.8665" gradientTransform="matrix(1 0 0 -1 0 288)">
			<stop  offset="0" style="stop-color:#FFFFFF"/>
			<stop  offset="5.850000e-02" style="stop-color:#F5F5F5"/>
			<stop  offset="0.1854" style="stop-color:#EAEBEC"/>
			<stop  offset="0.3051" style="stop-color:#E6E7E8"/>
			<stop  offset="0.3625" style="stop-color:#DDE0E5"/>
			<stop  offset="0.9282" style="stop-color:#2778BD"/>
			<stop  offset="0.9838" style="stop-color:#1C75BC"/>
			<stop  offset="0.9861" style="stop-color:#1E71B9"/>
			<stop  offset="0.99" style="stop-color:#2264B0"/>
			<stop  offset="0.9949" style="stop-color:#294EA2"/>
			<stop  offset="1" style="stop-color:#2E3192"/>
			<stop  offset="1" style="stop-color:#2E3192"/>
		</linearGradient>
		<path class="st18" d="M-2117.8,2768.2l148.7-20l47.5-29.7l37.5-8.4l28,24.4l93-1l15.4-0.2l77.6-1.1l26.2-5.3l71.2-18.8l98.6,12.2
			l15.3,2.7l52.2,24.3l36,4.9l2.5,12.6l41.4-23.6l18.7-14l51.1-9l35.9-29.2l44-16.9l46.8,21.6l5.8,9l20.1-11.5l22.3,7l31.7,21
			l18.3,7.5l-4,1l-9,3h24l29.1-2.2l37.4-2.5l42.6-13.3l12,20l61,10l49,3l12,3l-7-6c0,0,4,0,5-1c0,0,21-3,39,14c0.7,0.7,45-13,45-13
			l6.4,4.3l23.1,13c0,0,2.8,0.9,34.7-1.7c86-7.1,20.5-6.4,13.9-1.5l2.1,149.4l-1476.4,2.9L-2117.8,2768.2z"/>
		<path class="st1" d="M-1171.3,2741c59.7-19.5,38.1-49,38.1-49l8.6,9.5l19.4-10.5l19.4,7l33.1,22.5c0,0-25.4-21-41.7-20.3
			c-67.1,13.3-4.2,44.7-5.8,44.8C-1153.3,2750.5-1171.3,2741-1171.3,2741z"/>
		<g>
			<path class="st1" d="M-893.2,2732.5c0,0-13-11-21-28c-39,35-113,23-113,23c-344,151,44,105,79,30c91-12,27-63-24,5
				c-3.6,4.8-98.3-23.7-50-28c101-9,0.8-2.4,37,7c23,6,78-44,83-7c1.3,9.8-46,18-46,18l-20,27l70-4c140.7,16.1,141.9,15.2,100,16
				c-12-8-143.7-46,33-20L-893.2,2732.5z"/>
		</g>
		<path class="st1" d="M-1259.1,2719c26.6-21,32-27.6,35.3-30c5.3-3.9,46-17,48.2-17.5s43.9,22,43.9,22
			c-42.1-21.2,13.7,19.5-27.3-2.5c-26.6-13.5-21.5-19.4-42.5,1.6c-43.2,72.5,101.5-7.6,37.5,49.9c-52.5,17.5-61-11.1-63-18.4
			c43.5-57-53.4-11.9,0,8.6c10.8,4.2,28.4,14.8,43.5,17.8c44,8.7,28.6,24.9,7.2,24c-7.9-0.3-2.5,15.9-86.3-24.5
			c-44.6-21.5,18.7-25,18.7-25c-37.2-6.1-71.9,8.5-71.9,8.5l5.8-6.5C-1310.1,2727-1260.3,2720-1259.1,2719z"/>
		<path class="st1" d="M-2027.5,2761.3c-41.3,13.5-56.2,5.9-56.2,5.9c154.2-18.2-31,4.8-44.2,3.4c216.8-30-23.5-20.4,130-37.8
			c11.7-3.3,77.7-47.3,74.8-22.8c-7.4,6.3-79.9,69,7.2,34c76.7-30.8-20.6-37.6-39.6-2l-24.3,16.3L-2027.5,2761.3z"/>
		<path class="st1" d="M-1570.6,2709.5c-32.2,3.4-178.1,26.2-93.9,24.8c1.8,0-172.1,36.1-172.1,36.1l354-9c0,0-94.2-29.8-96.1-36.9
			s23.4-9.3,27.1-9.8c23.2-1.3,90.7,8.8,90.7,8.8S-1537.5,2706-1570.6,2709.5z"/>
		
			<linearGradient id="SVGID_7_" gradientUnits="userSpaceOnUse" x1="193.4795" y1="-2294.5332" x2="193.4795" y2="-2522.7417" gradientTransform="matrix(1 0 0 -1 0 288)">
			<stop  offset="0" style="stop-color:#FFFFFF"/>
			<stop  offset="5.850000e-02" style="stop-color:#F5F5F5"/>
			<stop  offset="0.1854" style="stop-color:#EAEBEC"/>
			<stop  offset="0.3051" style="stop-color:#E6E7E8"/>
			<stop  offset="0.3783" style="stop-color:#E0E2E6"/>
			<stop  offset="0.4641" style="stop-color:#D4D8E3"/>
			<stop  offset="0.5562" style="stop-color:#C0C9DE"/>
			<stop  offset="0.6527" style="stop-color:#A5B6D6"/>
			<stop  offset="0.7528" style="stop-color:#829FCD"/>
			<stop  offset="0.8541" style="stop-color:#5887C3"/>
			<stop  offset="0.9282" style="stop-color:#2778BD"/>
			<stop  offset="0.9838" style="stop-color:#1C75BC"/>
			<stop  offset="0.9861" style="stop-color:#1E71B9"/>
			<stop  offset="0.99" style="stop-color:#2264B0"/>
			<stop  offset="0.9949" style="stop-color:#294EA2"/>
			<stop  offset="1" style="stop-color:#2E3192"/>
			<stop  offset="1" style="stop-color:#2E3192"/>
		</linearGradient>
		<path class="st19" d="M-394,2670.8c0,0-0.3,23.8,26.1,20.2c50.6-6.9,58.5-20.4,58.5-20.4l18.9-0.3l33.6-26.7l28.8,26.7l26.5-21.9
			c0,0,38.1-66.6,39.7-65.8c77,39,96.4,18,96.4,18l33.6,19.2l36.9-4.2c0,0,1.9,8,12.5,18.7c6.2,6.3,32.6,16,32.6,16l11.4,9.4l4-2.1
			c0,0,18.2,6,35.5,8c18.2,13,37.9,18,37.9,18l29,2.8l57.9,20.4l38.9,3.6l34-5.8l37.7-9.1l38.9-4.7L400,2678c0,0,16.9-12,28.2-12.8
			c11.3-0.9,26.3,12,26.3,12l16.9,5.1l27.8-27.9l29.9,19.2l7.5,14.2l28.1,9.4l67.7-5c0,0,16.3-6.7,28.8-4c12.5,2.7,24.9,12,24.9,12
			s-1-4.7,21.1-2s43.2,24.3,43.2,24.3s21.4-5.8,32.6-7.7c32.1-5.3,45.1,2.7,45.1,2.7l15.8,6l9.1,2.7l17.3,52.7l78.7-16.4l-34.7,3.2
			h197v43.7H782.5v-0.5l-1159.4,1.6l-187.7,0.3c-41.5-82.2-159.5-56.2-159.5-56.2s138-67,180-35.7c2.9-1.5,97.6-77.3,97.6-77.3
			L-394,2670.8z"/>
		<path class="st1" d="M-560.8,2738.2c41.2-16.7,91-45.2,91-45.2l-75.5,47l-79.9,10.2c0,0,85.4-17.3,76.4-29.3
			c-17.2-22.9-80.3-7.3-176.3,30.7c-6.9,2.7,101.9-45,115-45c73,0,96-14,96-14S-562.2,2738.8-560.8,2738.2z"/>
		<path class="st1" d="M130,2701.6c30.4-16.5,45.4-8.3,63-4.3l-23.4-8.4l-40-8c0,0-57.6-36.7-1,5.3c16.1,11.9-32,28.7-40.3,21.3
			c-48.4-43,12-44.9,12-44.9l-24-7.5c0,0-14.3-2.5-16.5,7.5c-3.1-11-6-10.5-6-10.5s7.2,36.2-32.6,31.4
			c-27.8-36.7,10.6-30.7,10.6-30.7s-18.2-1.3-24.9-14c-4.6-8.7-1.9-24-1.9-24L-26,2618c-6.5-4-38.8-21-38.8-21s-12.7,5.8-26.1,8.5
			c-10.8-4.5-67.4-25.7-69.1-25.3c0,0,47,27.3,55.6,36.8c68.4,75.3-35.3,52.5-50.4,38c-0.7,0,30.6,30.2,48.9,28
			c28.8-3.5,36-4.2,89.7,10.5c-21.1-9.3-38.4-28.7-2.9-40.7c24.2-5.1,28.8,34.7,28.8,34.7s-18.2-38-33.6-12
			c-2.9,7.3,59,47.9,42.6,37.3c-40.5-20.8-94.4-25.8-94.4-25.8s51.8,11.8,85.4,32.5c39.3,22,30.7,12.7,30.7,12.7s41.7,21.6,27.1,9.8
			c-110.8-89.5,47.1-43.2,11.9-2.9c19.5,60,63.2-16.8,60-19.5c-1.4-1.2-22.5,36-42,12C94.2,2727.7,112.4,2711.1,130,2701.6z
			 M-29.6,2636.2c-1,11.3-1.9,16-16.3,31.3c-33.6,45.3-55.8-109.6-7.7-40.7C-37.3,2650.2-27.1,2606.7-29.6,2636.2z"/>
		<path class="st1" d="M872.1,2767.5l-22.1-38.7c0,0-8.3-4.3-17.3-9.3c-20.1-11.3-59.5-4.7-59.5-4.7l-20.1,4.7
			c0,0-34.5-22.2-46-22.7c-18.2-0.7-24,1.3-24,1.3s3.8-6.7-18.2-11.3c-16.5-3.5-11.5,2.1-56.6,6.7c-7.8,0.8-14.6,2.7-25.9,3.3
			c-5.8,0-10.6-0.7-10.6-0.7l-31.7-8.7l-9.6-14c0,0-30.5-19.4-31.7-19.3c-1.7,0.1-14.7,10.7-23,23.3l-5.5,3L456,2675
			c0,0-15.7-10-24.2-9.8c-14.7,0.3-46.9,21.8-43.5,21.8c18.4-11,52.7-25.3,52.5-6.5c0,2.2,0,11-15.1,12.5c-4.2,0.4-7.6,1.5-1.4,4.5
			c9.4,4.5,25.2,1.1,25.2,1.1s-11.5,4.4-12.2,4.9c-2,1.4-30.2,6-48.7-13.7c-3.2-3.4,14.9,15.7,14.9,15.7s-16.8,26,14.9,25.3
			s52.8-13.3,52.8-13.3c3.6-0.4-30.8-5.9-12.9-19.7c2.2-1.7,5.7-4.8,9.3-3.8c3.6,1,12.2,12.5,12.2,12.5l1.7-17.5
			c29-45.9,84.7,21.2-3.6,29.9c-7.9,0.8,69.1-5.3,88.2,0c0,0-30.7-11.3-23.2-19.3c5.2-5.5,24.2-0.7,31.9,6.3
			c5.3,4.9,19.2,21,19.2,21l37.4,6h1.9c0,0-6.2,3.5-33.6-11.3c-13.4-12.7-10.6-20,3.8-20.7c13.7-0.6,13.4,18.7,26.9,6
			c28.2-26.6,64.4,3.6,49.9,22.7c-14.4,6-58.5,1.3-58.5,1.3l49.9,14.7c0,0,68.1,10.3,72.9-11c-68.1,28.7-59.5-17.7-47-29
			c0.5-0.5-2.5,7.1,1.9,13.3c1.5,2.1,12.2-24.2,28.8-8c16.3,16-11.6,24.3-8.6,24.7c58.5,7.3,11.5-35.3,16.3-9.3
			c23-21.3,92.1-9.3,90.2-6c-109.3-8,139.1,35.3-62.3,18.7c34.8,33.4,37.9,14,31,13.7c-4.3-0.2,52.2,8.6,52.2,8.6L872.1,2767.5z"/>
		<path class="st1" d="M-160,2582.9c-1.1-0.8-21.8,34.3-21.8,34.3l-14.9,29l-28.5,24.7c0,0,24-11.7,33.9-8.7c9.9,3,9.9,26.5,4,34.9
			c-15.6,22-47.5,27.2-47.5,27.2s50.8-3.3,49.9-4c-44.1-4,20.3-13.8,19.4-14.2c-29.5-14-9-31.2-9.4-30.5
			c-8.6,14.5,31.7,25.5,31.7,25.5l49.4-9.5c0,0,31.8,7.1,11.2,4c-58-8.6-83.3-42.9-83.3-42.9s-4.7-5.3-6-17.2
			C-177.1,2587-62.2,2653.4-160,2582.9z"/>
		<g>
			<path class="st1" d="M-194.3,2705c0,0-1.4,6,6.5,4.5c-7.9,0-2.2-4.5-2.2-4.5c-0.7-0.7-6.5-4.4-7.2-5
				c-14.8-16.7-42.1-52.7-51.5-57c-13.9-6.4-5-7-39,27.2l-18.9,0.8l-2.2,2c0,0-5.8,3.3-21.6,11c-65.4,22.2-59.4-10.6-63.3-13
				c-22.7-14.1-53.2-29.5-53.2-29.5s-117.8,97.3-116.7,97.3c36.2-18.7,44.5-31.2,54.8-41.3c1.6-1.5-2.4,11.3-2.4,11.3
				c1-1.8,23-12.7,37.4-22c24.7-19.3-19.7-0.2-17-2.3c44.6-35,92.1-1.7,59.7-30c89.9,34.5,11.5,71.5-4.3,45
				c-12.9,37,48.9,47.3,79.9,55c10.1,2.5,58.7-8.4,47.5-8.5c-53.2-0.5-20.9-43.5-66.2-6c-5.2,4.3-19.3,2.5-20.1-7
				c-2.2-25.5,93-44.8,21.3-40.2c-3,0.2,51.3-5.8,58.5-13.8c-36.7,63-7.7,84.5,49.9,51.2c-55.6,13.3-49-43.3-47-41.3
				c12.5,12.7,24-15.3,24-15.3c34.5,28.7,34.5,50,34.5,50s1,2.7,17.8-0.1c0,0,16.4-2.4,26-6c13.5-5.1,14.5-8.5,14.1-11.8
				C-195,2705.6-194.4,2705-194.3,2705z M-281.9,2669.5c6.2-4,15.6-12.3,15.3-11.3c-4.1,14.3,5.8,8.1,6,8.8c7.9,24.5,7.2-16,23-3
				c10.3,8.5,20.9,20.5,33.3,36.8C-253.1,2664.2-202.2,2771.5-281.9,2669.5z"/>
		</g>
		
			<linearGradient id="SVGID_8_" gradientUnits="userSpaceOnUse" x1="123.2665" y1="-2354.6877" x2="123.2665" y2="-2666.4839" gradientTransform="matrix(1 0 0 -1 0 288)">
			<stop  offset="0" style="stop-color:#FFFFFF"/>
			<stop  offset="0" style="stop-color:#F2F3F5"/>
			<stop  offset="0" style="stop-color:#E2E4E9"/>
			<stop  offset="0" style="stop-color:#DDE0E5"/>
			<stop  offset="0.1879" style="stop-color:#E6E7E8"/>
			<stop  offset="0.5311" style="stop-color:#8DA6D0"/>
			<stop  offset="0.8035" style="stop-color:#4D82C1"/>
			<stop  offset="0.9282" style="stop-color:#2778BD"/>
			<stop  offset="0.9838" style="stop-color:#1C75BC"/>
			<stop  offset="0.9861" style="stop-color:#1E71B9"/>
			<stop  offset="0.99" style="stop-color:#2264B0"/>
			<stop  offset="0.9949" style="stop-color:#294EA2"/>
			<stop  offset="1" style="stop-color:#2E3192"/>
			<stop  offset="1" style="stop-color:#2E3192"/>
		</linearGradient>
		<path class="st20" d="M-631.2,2748.5c35-3,87.2-5.1,87.2-8l75.7-46.4l24.3-0.1c0,0-15.3,32.2,79.3,58.6
			c26.1,7.3,86.7-14.4,86.7-14.4l24.9-14l61-1.6c0,0-10.8,25.5,54,19.5c26-2.4,24.6-53.3,24.6-53.3s57.1,1.4,76.3,6.7
			s28.8,13.3,28.8,13.3l68.1,31.3l36.3,18.4l-18-18l21,21l51.9-42.3l44.2-8.8l45.5-45.6l44-22.3l26.9,19.7l21.4,23.1l23.8-13.6
			l21.6,9.9l29.7,31.3l27.8,5.2l8.6,6l-19.2,8l35.5-5.3l-14.4-2.7l50.3-8.5l43.7-6.8l23,9.1l33.3,10.6l78,11.7c0,0-1,2-1,1.3
			c0-2-18.2,3.3-18.2,3.3l23-0.7l41.2,6l32.6-12l90.2,8.7l6.7,6c0,0-11.1,19.4,21.1,20.7c22.4,0.9-11.6-7.8-18.2-1.3l-6.5,178.5
			l-1476.4,3.8C-630.9,2954.5-587.2,2764.5-631.2,2748.5z"/>
		<path class="st1" d="M934.4,2778.2c-37.4,8.2-41.1-23.8-91.1-31.3c-44.1-6.7-99.8-0.7-94-28.7c4.8,20-39.3,32.3-39.3,32.3
			l41.2,6.3c0,0-30.7-10.7,17.3-16c213.9,22-153.5,38.7-194.7,25.3c-5.7-1.9,117,48,138.1,36c20.8-11.8,153.5-15.3,153.5-15.3
			L934.4,2778.2z"/>
		<g>
			<path class="st1" d="M676.4,2742.9l-135.5-32.4l-86.3,12.1c15.2-1.3,59.5-8.4,80.8-5c8.3,3.2,17.4,1.6,13.4,9.3
				c-9.1,17.7-248.4,28-248.4,28l270,15.7c0,0,257.7,33.9,213.4,5c-32.6-21.3-227.3-16-210.1-30.7c7.7-3.3,20.1,0,20.1,0
				C545.7,2717.4,676.4,2742.9,676.4,2742.9z"/>
		</g>
		<path class="st1" d="M200.6,2706.2c10.2-20.7,34.9-35.1,38.1-38.3c5.3-5.2,39.7-24.2,45.4-24.8c5.8-0.6,28.6,23.4,28.6,23.4
			s-23.3-9.7-26.7-9.6c-17.4,0.6-29,17.8-29,17.8s0.1,48.7,108.5,72c-69.1,88-24-20-113.2-42c-42.1-6.9-30.7,7.2-18,17.7
			c71.5,59.3,2.6,42.2-21.3,35.1c-11.6-3.5,45-3.5,16-31.1c-9.7-9.3-13.1-11.1-21.8-13.1c-34.5-4.7-66.2,19.3-66.2,19.3l9.6-14
			C150.7,2718.9,199.9,2707.8,200.6,2706.2z"/>
		<path class="st1" d="M224.6,2718.9c-17.3-9.3-89.2-9.3-63.7,23.3c50.9,65.1-70.6,30.7-70.6,30.7l50.6-54.7
			C140.9,2718.1,212.1,2700.2,224.6,2718.9z"/>
		<path class="st1" d="M-116.9,2691.5c-25.6,10-25.9,28.7-113.2,32.7c-1.8,0.1,61.4,24.7-79.6,33.3l303,15.6l103.7-7.6
			c0,0-106.5-50.5-123-56.5c0,0,61.2,29.5,5,36c-24.5-0.5-18.5,11-21.6,10c-35.3-11.9-70.5-24.5-70.5-42.2
			c0-9.5,10.7-14.1,14.4-14.7c42.2-14.7,102.9,19.3,102.9,19.3S-60.5,2669.5-116.9,2691.5z"/>
		<path class="st1" d="M347.4,2708.9c-1.9-6.4-51.9-59.1-31.7-39.8l17,14.7l25.9-11.8l18.2,10.2l26.6,26.5c0,0-66.6-62.9-43.6,1
			c1,2.7-21.1,20-21.1,20L347.4,2708.9z"/>
		<path class="st1" d="M-615.5,2762.2l127.8-20.1l19.4-1.5c122.2,10.4,139.2,11.7,111.6,6.9c-2.9-0.5-89.4-6.9-94-9.3l0.5-0.7
			c0,0,13.9,0.7,12-1.3c-18.2-9.3-28.8-24-28.8-24s-1.9,7.3,2.9,16.7c2.2,4.3-8.6-7.1-11.5-8.7c-5-14.1,5.5-26.3,5.5-26.3
			c0.7-0.5-20.4,31.2-134.1,50.7c58-18,23-36-91.6-1.5c-9.8,3-30,13.3-39.7,17.8c45.1-20,187.3-41.3,107.5-12.7"/>
	</g>
	<g>
		<path class="st15" d="M-2116.1,2766.8l100.9-11.7l82,10.5l35.6-20.3l61.1,4.6l76.1-6.5l60,3l60-12l63.1-4.4l11.9,1.4l68.2,14.9
			l110.5-2.9l41,5.3c0,0,18.2,17.6,50.4,6.9c30-10,67,9,67,9l43-17l21,6l-5.9-12.5l16.9-3.5l48.5,4.2l24.7-1.4l26.2,2.6l26.2,4.8
			l40.7,5.1l53.8-1.4l46.6-2.6l23.3,3.4l34.9,3.4l45.1,2.2l59.7,5.9l24.7-1.6l18.9-1.9l26.2,2.2l30.5,2.4l32-0.5l21.9,0.6l1.8,61.4
			l-1546.8,1.2L-2116.1,2766.8z"/>
		<path class="st16" d="M-653.6,2772.6l-88.5,0.5l-47.4-6.5l-77.3-7.4l-63.8,9.2l-79.4-6.5l-23.1-0.9c0,0-33.5-7.2-56.1-8.3
			c-71.4-3.6-1.5,11.5-71.1,14.8c-40.2,1.9-31-17-68-14c-6.5,0.5-5,13-46.7,13.6c-21.8,0.3-65.3,3.2-65.3,3.2l-25.4-4.7l-43.2-9
			l-63.8,1.1l-34.9-7.5l-26.2-3.3l-16,1.6l-32,2.6l-24.7-1.4l-26.2,2.6l-26.2,4.7l-40.7,4.9l-53.8-1.4l-46.6-2.6l-23.3,3.3
			l-34.9,3.3l-45.1,2.1l-48,4.7l-44.6-5.7l-7.1,0l-29,2.8l-31.4,5l-32-0.5l-21.9,8.7l-1.8,51.4l1546.8,1.2l-5.8-6.8"/>
		<path class="st15" d="M-660.1,2762c0,0,34.2,0,63.8-0.4s115-18,115-18s18.1-4.1,45.1-2.2c27,1.8,61.1,6,61.1,6l81.5,5.4l78.6-1.6
			l49-11.5l64.3-2.8l65.2-0.7l0.8,6.4l104.3,16.8c0,0,33.9,6,46.6,3.2s31.5-21.2,55.1-18.8s32.2,7.6,32.2,7.6l71.2-4l14.1-6.8
			c0,0,3.5-9.1,14-10s22.9,2.5,22.9,2.5l32,3.5l24.7-1.9l26.2,3.5l26.2,6.3l40.7,6.6l53.8-1.9c0,0,30.1-3.9,46.6-3.5
			s23.3,4.4,23.3,4.4l34.9,4.4l45.1,2.9l45.1,11.2l42-3c0,0,20.4-9.2,32.7-11.4s29.7,5.6,29.7,5.6l17.3-3.5l25.2,9.6l21.9,0.8
			l1.8,80.9l-1546.8,1.6l0.7-67.7"/>
		<path class="st16" d="M-657.5,2854.3l0,2.7l1546.8,1.5l-0.8-76.9l-88-3.6h-81.2l-47.4-8.5l-77.3-9.7l-63.8,12.1l-79.4-8.5
			l-23.1-1.2c0,0-33.8-7.3-56.1-10.9s-30,15.8-62.8,15.8s-59.9-10.9-74.4-7.3s-31.6,8.8-64,4.3c-21.5-3-49.8,10.3-49.8,10.3
			l-37.8,2.4l-48-11.3l-67.3-8.9l-20.4-3.1l-22,6h-22l-6.8-1.4l-41.9-10.7l-26.2,3.4l-18.2,11.8c0,0-41.9,15.9-68.9,7.9
			c-13.1-3.9-40-7-40-7l-41-2l-50.9-3.4l-23.7,10.5l-27.9,0.9l-48,6.1l-32.3-12.3l-19.3,4.9l-29,3.6l-36.9,0.4l-16.3-3.5l-33.7,3.7"
			/>
	</g>
</g>
<path class="st21" d="M7298.6-1072.8c-2.9,0.4-6,1.5-25.3-3.6c-2.4-0.6-10.7-2.2-14.7-2.9c40.8-13.2,56.4-0.2,47.9-10.7
	c-8.5-10.5,14.1-1.7,14.1-1.7l10.7,6.6C7331.3-1085.2,7308.6-1074.2,7298.6-1072.8z M7350.9-1075.4
	C7350.9-1075.4,7350.9-1075.4,7350.9-1075.4C7350.8-1075.3,7350.9-1075.3,7350.9-1075.4z M7837-1072.8c16-25-59,16-18.3-27
	c8.6-9.1,17-18,21.6-23c19.4-21.3,7.8-20-2.3-6.1c-9.1,12.6-32.5,35.5-32.9,36.1c-6,8-11,8.3-11,8.3s-15.3-4.1-26.7-3.3
	c-21.6,1.4-41.3,7-41.3,7l-40-6.3c0,0,66.5,21.7,38.4,23.4c-21.6,1.3-49.1,1.2-58.4-3.9l5-7.1l-29.7,1l-54.7-3.3l-43.7-6.7l-75,5
	l-15.3,0.3l-37.7-5.3l-10-7l-24.3-4.3c0,0-3,0.1-10.7,2.7l-18.7,3.3l-21.3-5.3l-10.7-6c0,0-12.4-2.1-16-1.3
	c-11.6,2.4-43.1,13-55.3,18c-8.8-0.3-19.2,3-28.7,3c-12,0-26,2.3-26,2.3s-46.8,6.6-60.7,8c-3.7,0.4,43.8,7.9,14.7,3.5
	c170,25.5-42.7,0.7,52-8.7c103.7-10.4,42.7,23.3,81.5,18.4c38-2.2,63.2,17.3,63.2,17.3s62.5,5.8,78-1.5c4.7-2.2-105.3-16-117.3-24.8
	c5.3-8,39.6-18.3,54-16c14,2.2-2,8.6-2,8.7c-12.7,5.1-1.3,1.5,16.8-4.2c3.2-1,19.5-7.1,27.2-4.6c7.7,2.5-0.3,24.5,3.5,17.1
	c8.8-11.5,19-10,31.8-8.3c55.3,7.3-2.2,32.3,4.7,29.9c36-12.7,76.6-34.3,116.7-31.3c29.2,2.2,50,9.5,50,9.5
	c-5.1,5-90.8,22.8-90.8,24.7c61.5-1.6,110.1,1.9,112.5,0.6s-48-8.8-40.5-13.8c15-9.8,28.8-11.6,48.8-12.3
	c53.3,1.5,20.7,9.5,20.7,9.5c112.7-12.4,149.6,26.1,131.3,13.8c-90-60.5,9.7-34.9,9.7-34.9S7807-1032.8,7837-1072.8z"/>
<g class="st22">
	<path class="st23" d="M421.4,122.6c2.8,0,4.7-0.1,5.7-0.2c1.1-0.2,2-0.6,2.7-1.4c0.7-0.7,1.1-1.8,1.1-3c0-1.3-0.4-2.3-1.1-3.1
		c-0.7-0.8-1.7-1.3-2.8-1.4c-1.1-0.2-3.1-0.2-6-0.2h-1.8v9.5H421.4z"/>
	<path class="st23" d="M446.4,263.2c0-5.9-2.4-11.2-6.2-15.1c6.8-0.9,25.5-7.8,42.8-16.7l39.1,14.8l31.3-20.3l-32.3-19.2l6.2-3.5
		h128.8l67.3-38.2H541.2c2.6-7.9,7.5-17.7,7.5-17.7h164.9l69-38.2H546.4c-1.1-7.7-2.8-12.2-5.2-19.4h232.4l68.2-44.3H517.6
		C494.9,19,461.7,2,424.3,2c-37.8,0-71.3,17.3-94,44.1H6.8L75,90.3h232.1c-2.3,7.2-4,11.7-5,19.4H65.9l69,38.2h164.9
		c0,0,5.1,9.7,7.8,17.7H125.1l67.3,38.2h124.4l5.1,3.1l-35.7,18.8l31.3,20.3l40.9-15.5c19.2,10.7,42.4,16.4,50.6,17.4
		c-3.8,3.9-6.2,9.2-6.2,15.1c0,12,9.8,21.8,21.8,21.8S446.4,275.2,446.4,263.2z M511.8,122c0,26.4-12,50.1-30.9,65.8L464,135.9
		l45.5-33.1C511,109,511.8,115.4,511.8,122z M346.9,90.8c11.7-29.6,39.4-51.1,72.5-53.8l-17.5,53.8H346.9z M449.4,90.8l-17.5-53.9
		c33.7,2.2,62.1,23.8,73.9,53.9H449.4z M423.1,102.1c2.4,0,4.7,0,6.8,0.1c2.1,0.1,3.8,0.2,5.3,0.4c1.5,0.2,2.8,0.4,4.1,0.6
		c3.5,0.7,6.3,2.4,8.5,4.8c2.2,2.5,3.3,5.5,3.3,9c0,2.6-0.7,4.9-2,7c-1.3,2.1-3.1,3.6-5.3,4.6l6.9,11.4h3.6V152h-17.9l-10.8-20.3
		h-6.1v8.4h3.8V152h-27V140h4v-26h-4v-11.9L423.1,102.1L423.1,102.1z M340.9,122c0-6.3,0.7-12.4,2-18.3l44.3,32.2l-16.5,50.9
		C352.5,171.1,340.9,148,340.9,122z M382.4,195.2l43.2-31.4l43.9,31.9c-12.7,7.4-27.4,11.8-43.2,11.8
		C410.3,207.5,395.3,203,382.4,195.2z"/>
</g>
</svg>
