<svg xmlns="http://www.w3.org/2000/svg" viewBox="0 0 192.12 66.62">
  <defs>
    <style>
      .a {
        fill: #414042;
      }
    </style>
  </defs>
  <title>logo</title>
  <g>
    <path class="a" d="M9.33,27.32c4.54,8,5.32,10.38,10.73,25,0.35,0.87,3.23,7.5,2.44,10.64-0.44,1.83-3.23,2.35-4.36,1.48-2.09-1.31-2.09-2.44-2.62-4.19A218.92,218.92,0,0,0,6.8,35.17C5.15,45,5.85,53.4,5.85,65c0,2.09-5.76,2.09-5.76.35-0.61-17.19,2.18-40,1.74-56.62a11.83,11.83,0,0,1,.17-4c0.52-2,2.7-3.84,4.8-2C7.24,7,7.15,12.66,7.42,17.2c3.4-2.53,5.15-11.43,8.64-14.48,0.87-.7,3.75-1.74,4.27,0S18.93,8,18.41,9C14.74,16.76,13.87,19.38,9.33,27.32Z"/>
    <path class="a" d="M30.88,63.34c0,2.18-.87,2-1,2.09a2.63,2.63,0,0,1-3.23-.35c-1.92-1.92-1.74-5.5-1.66-8.81,0.17-12.91.79-31.23,0.79-43.53,0.09-4.62-1-8.72,2.36-10,1.83-.87,2.7,1.48,3,3.49,1,5.5.35,12,.52,17C32.1,36,30.18,50.52,30.88,63.34Z"/>
    <path class="a" d="M38.47,66a5.71,5.71,0,0,1-2.7-.44c-2.09-1.31-2-62.11.44-62.11,0.35-2.53,5.67-3.49,11.6-1.66,10,5,11.34,13.52,11.6,26.52C59.58,44.68,54.87,66,38.47,66Zm3.14-7.42c1.57-.35,3.66-2,5-3.4,7.07-7.94,9.07-31.23,3.93-42.57C49,9.26,46.41,6.12,42.22,6.12,39.78,7.25,40.47,58.55,41.61,58.55Z"/>
    <path class="a" d="M89.84,2a14.57,14.57,0,0,1,6.8,1.74c1.66,1,2.88,3.66,3.49,5.58,1.4,4-3.31,5.67-4.1,3.93-1.4-3.14-1.4-3.84-3.84-4.54-4.54-1.31-4.36,7.42-4.45,11.17-0.26,10.82-.35,21,0.79,30.79,0.35,3.31,1.22,11.69,4.8,11,5.67-1,1.4-3.4,5.76-4.8,1.66-.52,2.88,1.83,2.88,2.27,0.17,1.31-1.22,2.79-1.66,3.49C96.65,67.88,87.84,68,84.52,62.3c-1.92-3.14-2.36-8.11-2.79-13.7-0.17-4-.61-10.21-0.7-15.44-0.17-8.37-.52-18.41,1-23.29C83,6.64,86.09,2.63,89.84,2Z"/>
    <path class="a" d="M104.06,1.14c1-1.48,4.8-1.31,4.8.79,0.7,8.37.87,18.41,0.87,28.7,0,9.07-2,20.41,1.48,26.87a2.76,2.76,0,0,0,3.31,1.66c3.84-1.57,3.49-9.51,3.49-18.67,0-4.19-.79-35.94,1-39.26,1-1.66,5.06.26,5.32,1.13,0.61,4.1.61,10,.61,16.05,0,11.34.7,26-1.13,35.59-0.7,3.66-1.66,7.15-3.66,9.42-5,5.5-12.74,2.18-15.27-4.1a9.16,9.16,0,0,1-1.13-3,30.75,30.75,0,0,1-.7-5.93,127.16,127.16,0,0,1,0-16.31c0.09-4,.26-8.2.17-12.21-0.17-6.63.7-12.13,0.26-18.41A4.45,4.45,0,0,1,104.06,1.14Z"/>
    <path class="a" d="M140.79,23.56A34.2,34.2,0,0,1,145,33.33a46.37,46.37,0,0,1,1.92,18.14c-0.87,6.19-2.18,12-6.8,14-2.7,1.31-8,.35-9.94-1s-2-4.45-2.09-8.64c-0.61-6.72-.61-15-0.87-22.16-0.09-4.36-.26-8.55-0.35-13.87-0.09-5.15-1-10.38-.61-14.83,0.44-3.58,3.23-4.36,6.37-4.8a12.92,12.92,0,0,1,9.51,2.53,15.79,15.79,0,0,1,3.66,4.54C148.55,13.45,145.76,20.07,140.79,23.56Zm-7.5-4c5.23,0.35,8.81-4,7.76-9.33-0.61-3.58-4.19-6.11-8.46-5.32C132.41,9.43,133.2,14.67,133.28,19.55Zm0.44,6.63a0.55,0.55,0,0,0-.44.52c0.35,8.72.44,17.19,0.7,26.08,0.09,2.79-.35,7.15,1.31,7.85,2.27,0.7,5-3.31,5.32-5.32a51.58,51.58,0,0,0,0-19C139.56,31,137.82,26.7,133.72,26.18Z"/>
    <path class="a" d="M163.29,23.56a34.2,34.2,0,0,1,4.19,9.77,46.36,46.36,0,0,1,1.92,18.14c-0.87,6.19-2.18,12-6.8,14-2.7,1.31-8,.35-9.94-1s-2-4.45-2.09-8.64c-0.61-6.72-.61-15-0.87-22.16-0.09-4.36-.26-8.55-0.35-13.87-0.09-5.15-1-10.38-.61-14.83,0.44-3.58,3.23-4.36,6.37-4.8a12.92,12.92,0,0,1,9.51,2.53,15.79,15.79,0,0,1,3.66,4.54C171.05,13.45,168.26,20.07,163.29,23.56Zm-7.5-4c5.23,0.35,8.81-4,7.76-9.33-0.61-3.58-4.19-6.11-8.46-5.32C154.91,9.43,155.7,14.67,155.79,19.55Zm0.44,6.63a0.55,0.55,0,0,0-.44.52c0.35,8.72.44,17.19,0.7,26.08,0.09,2.79-.35,7.15,1.31,7.85,2.27,0.7,5-3.31,5.32-5.32a51.58,51.58,0,0,0,0-19C162.07,31,160.32,26.7,156.22,26.18Z"/>
    <path class="a" d="M191.9,2.54c1.48,0.87-5,23.2-7.5,34.28-1.66,7.5-3.93,14.48-5.67,22-0.61,2.27-.7,6-2.35,6.72-2.09.17-3,.44-4.27-0.7-1.4-.61.78-7.68,1.66-11.25,2.53-10.56,5.76-21.37,8.37-32-2.7-3.84-5.58-7.33-8.55-11.43-0.87-1.31-2.36-3.23-2.27-4.27,0.17-2.09,2.79-3.23,4.71-2,2.7,1.66,5.5,7.76,8,9.68,1-2.27,1-6.89,2.53-9.51C187.63,2.28,189.89.71,191.9,2.54Z"/>
  </g>
</svg>
