<svg xmlns="http://www.w3.org/2000/svg" viewBox="0 0 78.43 75.34">
  <defs>
    <style>
      .a {
        fill: #47c2cb;
      }

      .b {
        fill: #90d5db;
      }

      .c {
        fill: #414042;
      }

      .d {
        fill: #ffcc39;
      }
    </style>
  </defs>
  <title>bear_logo</title>
  <g>
    <ellipse class="a" cx="39.22" cy="41.81" rx="34.51" ry="33.53"/>
    <g>
      <circle class="a" cx="61.26" cy="20.8" r="17.18"/>
      <path class="b" d="M71.46,27c0.14-.14.28-0.27,0.41-0.42,3.77-4.32,2.83-11.33-2.12-15.64s-12-4.31-15.79,0c-0.13.15-.24,0.31-0.36,0.47Z"/>
    </g>
    <g>
      <circle class="a" cx="17.18" cy="20.8" r="17.18"/>
      <path class="b" d="M8,28.47c-0.15-.12-0.31-0.24-0.46-0.37C3.31,24.27,3.41,17.2,7.8,12.32S19.21,6.6,23.48,10.44c0.15,0.13.28,0.28,0.41,0.42Z"/>
    </g>
    <circle class="c" cx="16.85" cy="41.87" r="3.75"/>
    <circle class="c" cx="64.83" cy="41.87" r="3.75"/>
    <circle class="b" cx="39.22" cy="59.39" r="14.76"/>
    <path class="c" d="M36.44,58.7l-1-2.17a3.08,3.08,0,0,1,2.77-4.42h2.1A3.08,3.08,0,0,1,43,56.54L42,58.7A3.08,3.08,0,0,1,36.44,58.7Z"/>
    <rect class="d" x="6.15" y="32.24" width="65.38" height="4"/>
    <g>
      <path class="c" d="M8.4,32.64a4.26,4.26,0,0,0-4.18,3.44,20.1,20.1,0,0,0-.37,3.83c0,9.53,6.49,17.25,14.5,17.25s14.5-7.72,14.5-17.25a20.1,20.1,0,0,0-.37-3.83,4.26,4.26,0,0,0-4.18-3.44H8.4Z"/>
      <path class="d" d="M18.35,59.17c-9.1,0-16.5-8.64-16.5-19.25a22.15,22.15,0,0,1,.4-4.21A6.27,6.27,0,0,1,8.4,30.64H28.3a6.27,6.27,0,0,1,6.14,5.06,22.15,22.15,0,0,1,.4,4.21C34.85,50.54,27.45,59.17,18.35,59.17ZM8.4,34.64a2.26,2.26,0,0,0-2.21,1.83,18.16,18.16,0,0,0-.33,3.45c0,8.41,5.61,15.25,12.5,15.25s12.5-6.84,12.5-15.25a18.16,18.16,0,0,0-.33-3.45,2.26,2.26,0,0,0-2.21-1.83H8.4Z"/>
    </g>
    <g>
      <path class="c" d="M49.68,32.64a4.26,4.26,0,0,0-4.18,3.44,20.1,20.1,0,0,0-.37,3.83c0,9.53,6.49,17.25,14.5,17.25s14.5-7.72,14.5-17.25a20.1,20.1,0,0,0-.37-3.83,4.26,4.26,0,0,0-4.18-3.44H49.68Z"/>
      <path class="d" d="M59.63,59.17c-9.1,0-16.5-8.64-16.5-19.25a22.18,22.18,0,0,1,.4-4.21,6.27,6.27,0,0,1,6.14-5.06H69.58a6.27,6.27,0,0,1,6.14,5.06,22.18,22.18,0,0,1,.4,4.21C76.13,50.54,68.73,59.17,59.63,59.17Zm-10-24.53a2.26,2.26,0,0,0-2.21,1.83,18.14,18.14,0,0,0-.33,3.45c0,8.41,5.61,15.25,12.5,15.25s12.5-6.84,12.5-15.25a18.14,18.14,0,0,0-.33-3.45,2.26,2.26,0,0,0-2.21-1.83H49.68Z"/>
    </g>
    <g>
      <path class="d" d="M40.94,8.34l-0.06-.16A12.29,12.29,0,0,0,18,17.08L18,17.23Z"/>
      <path class="c" d="M40.76,7.86l0,0.08c1.24,3.19-2.89,7.77-9.22,10.23S19.11,20,17.87,16.84l0-.08Z"/>
      <ellipse class="c" cx="25.53" cy="1.44" rx="2.03" ry="1.36" transform="translate(0.81 7.99) rotate(-18.07)"/>
      <path class="c" d="M19.9,16.28C18,8,24.9,1.35,25.19,1.07L25.88,1.8c-0.07.06-6.75,6.52-5,14.26Z"/>
      <path class="c" d="M37.74,11C34.6,3.47,25.65,1.89,25.56,1.88l0.16-1C26.11,1,35.3,2.57,38.67,10.57Z"/>
      <rect class="c" x="27.08" y="1.13" width="1" height="13.17" transform="translate(-1.01 9.37) rotate(-18.95)"/>
    </g>
  </g>
</svg>
