<?xml version="1.0" encoding="utf-8"?>
<!-- Generator: Adobe Illustrator 19.1.0, SVG Export Plug-In . SVG Version: 6.00 Build 0)  -->
<svg version="1.1" xmlns="http://www.w3.org/2000/svg" xmlns:xlink="http://www.w3.org/1999/xlink" x="0px" y="0px" width="54.2px"
	 height="54.2px" viewBox="0 0 54.2 54.2" enable-background="new 0 0 54.2 54.2" xml:space="preserve">
<g id="Layer_1">
</g>
<g id="Layer_6">
</g>
<g id="Layer_4">
	<g id="Layer_2">
	</g>
</g>
<g id="Layer_3">
	<path fill="#999999" d="M45.9,0H9C4.2,0,0,3.5,0,8.3v36.8c0,4.8,4.2,9.1,9,9.1h22.8c0-7.1,0-15,0-21.9c-1.5,0-2.9-0.1-4.4-0.1
		c0-2.4,0-4.9,0-7.3c1.5,0,2.9,0,4.4,0c0-2.4,0-4.7,0-7.1c0.1-1.9,0.9-3.8,2.3-5c1.7-1.6,4.1-2.2,6.4-2.2c2.4,0,4.8,0,7.2,0
		c0,2.5,0,5.1,0,7.6c-1.6,0-3.1,0-4.7,0c-1-0.1-2,0.7-2.2,1.7c0,1.7,0,3.4,0,5.1c2.3,0,4.5,0,6.8,0c-0.2,2.5-0.5,4.9-0.8,7.3
		c-2,0-4,0.2-6,0.2c0,6.9,0,14.8,0,21.9h5.1c4.8,0,8.3-4.3,8.3-9.1V8.3C54.2,3.5,50.6,0,45.9,0z"/>
</g>
<g id="Layer_5" display="none">
</g>
</svg>
