<?xml version="1.0" encoding="utf-8"?>
<!-- Generator: Adobe Illustrator 19.1.0, SVG Export Plug-In . SVG Version: 6.00 Build 0)  -->
<svg version="1.1" xmlns="http://www.w3.org/2000/svg" xmlns:xlink="http://www.w3.org/1999/xlink" x="0px" y="0px" width="54.2px"
	 height="54.2px" viewBox="0 0 54.2 54.2" enable-background="new 0 0 54.2 54.2" xml:space="preserve">
<g id="Layer_1">
</g>
<g id="Layer_6">
</g>
<g id="Layer_4">
	<path fill="#999999" d="M45.8,54.2H8.4c-4.6,0-8.4-3.7-8.4-8.4V8.4C0,3.7,3.7,0,8.4,0h37.4c4.6,0,8.4,3.7,8.4,8.4v37.4
		C54.2,50.4,50.4,54.2,45.8,54.2z"/>
	<g id="Layer_2">
		<path fill="#FFFFFF" d="M9.3,44.9c0,0.3,0.1,0.6,0.4,0.8c0.2,0.2,0.5,0.4,0.8,0.4h7.1c0.3,0,0.6-0.1,0.8-0.3
			c0.2-0.2,0.4-0.5,0.4-0.8V21.1c0-0.3-0.1-0.6-0.4-0.8c-0.2-0.2-0.5-0.4-0.8-0.4h-7.1c-0.3,0-0.6,0.1-0.8,0.4
			c-0.2,0.2-0.4,0.5-0.4,0.8L9.3,44.9L9.3,44.9z M9.3,12.7c0,1.3,0.4,2.4,1.3,3.3c0.9,0.9,2,1.4,3.2,1.4c1.3,0,2.4-0.5,3.3-1.4
			c0.9-0.9,1.3-2,1.3-3.2s-0.5-2.4-1.4-3.3c-0.9-0.9-2-1.4-3.3-1.4c-1.3,0-2.4,0.5-3.2,1.4C9.7,10.3,9.3,11.4,9.3,12.7L9.3,12.7z
			 M21.2,44.9c0,0.3,0.2,0.6,0.6,0.8c0.4,0.2,0.8,0.4,1.1,0.4h6.8c0.3,0,0.5-0.1,0.7-0.4c0.2-0.2,0.3-0.5,0.3-0.8V32
			c0-3.5,1.4-5.2,4.3-5.2c1.2,0,1.9,0.3,2.3,0.8c0.4,0.5,0.6,1.4,0.6,2.8v14.6c0,0.3,0.1,0.6,0.4,0.8c0.3,0.2,0.6,0.4,1,0.4h6.9
			c0.3,0,0.6-0.1,0.8-0.3c0.2-0.2,0.4-0.5,0.4-0.8V28.8c0-3.1-0.9-5.5-2.7-7.2c-1.8-1.7-4.3-2.5-7.6-2.5c-2.2,0-4.2,0.6-5.9,1.7
			c-0.3,0.2-0.5,0.3-0.5,0.4c0-0.9-0.4-1.3-1.3-1.3h-6.5c-0.4,0-0.8,0.1-1.1,0.3c-0.4,0.2-0.6,0.4-0.6,0.7L21.2,44.9L21.2,44.9z"/>
	</g>
</g>
<g id="Layer_3">
</g>
<g id="Layer_5" display="none">
</g>
</svg>
