<?xml version="1.0" encoding="utf-8"?>
<!-- Generator: Adobe Illustrator 19.1.0, SVG Export Plug-In . SVG Version: 6.00 Build 0)  -->
<svg version="1.1" xmlns="http://www.w3.org/2000/svg" xmlns:xlink="http://www.w3.org/1999/xlink" x="0px" y="0px" width="54.2px"
	 height="54.2px" viewBox="0 0 54.2 54.2" enable-background="new 0 0 54.2 54.2" xml:space="preserve">
<g id="Layer_1">
	<path fill="#999999" d="M45.8,54.2H8.4c-4.6,0-8.4-3.7-8.4-8.4V8.4C0,3.7,3.7,0,8.4,0h37.4c4.6,0,8.4,3.7,8.4,8.4v37.4
		C54.2,50.4,50.4,54.2,45.8,54.2z"/>
	<g>
		<g id="XMLID_1_">
			<g>
				<path fill="#FFFFFF" d="M45.9,37.1c0-7.3,0-14.6,0-21.9c-0.1,0-0.2-0.1-0.3-0.1c-3.6,3.7-7.2,7.3-10.9,11
					c3.7,3.8,7.3,7.5,10.9,11.2C45.8,37.2,45.9,37.1,45.9,37.1z M8.6,37.2c3.6-3.7,7.3-7.4,11-11.3c-3.8-3.8-7.4-7.5-11.3-11.4
					c0,7.7,0,15.1,0,22.5C8.4,37.2,8.5,37.2,8.6,37.2z M27,31.6c-1.9,0-3.2-1.1-4.3-2.4c-0.3-0.4-0.7-0.7-1.1-1.1
					c-3.8,3.8-7.4,7.6-11.2,11.4c11.3,0,22.3,0,33.6,0c-3.8-3.9-7.4-7.6-11.2-11.5c-0.7,0.8-1.2,1.4-1.7,2
					C29.9,31.1,28.6,31.6,27,31.6z M25.4,27.9c1.2,1.2,2.4,1.2,3.6,0c4.8-4.9,9.6-9.7,14.4-14.6c0.2-0.2,0.3-0.4,0.5-0.7
					c-11.2,0-22.3,0-33.5,0c0.2,0.3,0.3,0.5,0.5,0.6C15.7,18.1,20.6,23,25.4,27.9z M48.8,9.8c0,10.9,0,21.6,0,32.5
					c-14.4,0-28.7,0-43.1,0c0-10.8,0-21.6,0-32.5C20,9.8,34.3,9.8,48.8,9.8z"/>
			</g>
		</g>
	</g>
</g>
<g id="Layer_6">
</g>
<g id="Layer_4">
	<g id="Layer_2">
	</g>
</g>
<g id="Layer_3">
</g>
<g id="Layer_5" display="none">
</g>
</svg>
