<?xml version="1.0" encoding="utf-8"?>
<!-- Generator: Adobe Illustrator 19.1.0, SVG Export Plug-In . SVG Version: 6.00 Build 0)  -->
<svg version="1.1" xmlns="http://www.w3.org/2000/svg" xmlns:xlink="http://www.w3.org/1999/xlink" x="0px" y="0px" width="253.9px"
	 height="223.7px" viewBox="0 0 253.9 223.7" enable-background="new 0 0 253.9 223.7" xml:space="preserve">
<g id="Layer_2">
	<polygon fill="#E1A157" points="31.7,76.8 43.6,133.5 58.3,138.5 53.9,156.7 69.7,163.9 73.7,185.6 93.3,195.7 177.3,192 
		190.6,204 219.4,164.3 208,152.2 216.3,140.4 232,145.4 216.3,49 152.4,17.3 	"/>
</g>
<g id="Layer_1">
	<path fill="none" stroke="#333333" stroke-width="14" stroke-linecap="round" stroke-linejoin="round" stroke-miterlimit="10" d="
		M198.4,213.2c-4.9-5-9.7-9.9-7-17.6c2.1-6.1,9.2-8.8,10.9-15.2c2-7.9-3.1-12-7.8-17.1c-4.9-5.4-5-13-0.1-18.5
		c4.7-5.2,10-9.3,7.9-17.3c-1.7-6.4-8.6-9-10.8-15c-2.8-7.7,2-12.6,6.9-17.6c5-5.2,6-12.7,1.3-18.4c-4.4-5.4-10.1-8.9-8.7-16.9
		c1.2-6.7,8-9.3,10.7-15.2c0.8-1.7,1.1-3.5,1.1-5.4"/>
	<path fill="none" stroke="#333333" stroke-width="14" stroke-linecap="round" stroke-linejoin="round" stroke-miterlimit="10" d="
		M75.4,216.2c-4.9-5-9.7-9.9-7-17.6c2.1-6.1,9.2-8.8,10.9-15.2c2-7.9-3.1-12-7.8-17.1c-4.9-5.4-5-13-0.1-18.5
		c4.7-5.2,10-9.3,7.9-17.3c-1.7-6.4-8.6-9-10.8-15c-2.8-7.7,2-12.6,6.9-17.6c5-5.2,6-12.7,1.3-18.4c-4.4-5.4-10.1-8.9-8.7-16.9
		c1.2-6.7,8-9.3,10.7-15.2c0.8-1.7,1.1-3.5,1.1-5.4"/>
	<path fill="#333333" d="M182.4,103.9H92.9c-20.5,0-37-16.6-37-37v-6.8c0-20.5,16.6-37,37-37h89.5c20.5,0,37,16.6,37,37v6.8
		C219.4,87.3,202.9,103.9,182.4,103.9z"/>
	<g>
		<path fill="none" d="M38.2,116.3c0-1.4,0.4-2.7,1-3.8c-1-2.2-2.3-4.3-3.7-6.5c-3.2-5.3-6.9-11.2-7.2-19c0-1.2,0-2.4,0.1-3.5
			c-1.8,6.3-2,12.8,0.3,19.5l0.8,2.1c2.9,8.1,5.9,16.6,4.1,26.8c-0.1,0.6-0.2,1.1-0.3,1.7c0.5-0.4,1.1-0.9,1.6-1.3
			c3.3-2.9,5.3-6.5,5.9-10.2C39.1,120.6,38.2,118.6,38.2,116.3z"/>
		<path fill="none" d="M56.7,82.4c-0.4,0.4-0.8,0.9-1.2,1.3c0.4,0.1,0.8,0.2,1.2,0.4V82.4z"/>
		<path fill="none" d="M43,77.6c0.2-0.3,0.4-0.5,0.6-0.8c-0.1,0-0.2,0-0.3,0C43.2,77,43.1,77.3,43,77.6z"/>
		<path fill="none" d="M46.7,138.5c-1,1.2-2.1,2.3-3.2,3.3c-2.1,1.9-4.3,3.6-6.4,5.1c-4.5,3.4-8.4,6.3-10.3,10.9
			c-2.4,5.7-1.2,11.3,4.1,19.4c2.4,3.6,4.1,7,5.3,10.2c-1.4-6.5-0.8-13.5,3.6-20.9c0.1-0.2,0.3-0.4,0.4-0.6c2.2-2.9,4.5-5.5,6.8-8
			c3.9-4.3,7.3-8,8.9-12.3C51.8,145.2,48.4,142.4,46.7,138.5z"/>
		<path fill="none" d="M217.6,145.4c-0.8,4.7-2,9.2-3.6,13.6c3.9-4.3,6.6-9,7.9-13.5c-0.6,0.1-1.2,0.2-1.8,0.2
			C219.3,145.7,218.4,145.6,217.6,145.4z"/>
		<path fill="#E1A157" d="M217.6,145.4c0.8,0.2,1.7,0.3,2.6,0.3c0.6,0,1.2-0.1,1.8-0.2c1.9-0.3,3.6-1.1,5.1-2.3
			c-1.7-1.4-3.6-2.9-5.5-4.4c-10.5-6.8-11.3-21.3-6.7-32.7c4.8-23.3-2.1-36.6-8.6-45.5c-7.8-11-22.4-22.2-42.9-26.3
			C133.2,57.2,97,71.5,57,75.7v6.7v1.7c3,1.1,4.8,3.9,4.8,7.2c0,1.9-0.7,3.6-1.9,5c0,0,0,0.1,0.1,0.1c1.4-1.7,3.5-2.8,5.9-2.8
			c4.3,0,7.7,3.5,7.7,7.8s-3.5,7.8-7.8,7.8c-0.7,0-1.3-0.1-2-0.3c0,0,0,0,0,0c3.3,0.9,5.7,3.9,5.7,7.5c0,3.4-2.2,6.3-5.3,7.4
			c-2-1.7-4.5-2.7-7.2-2.7c-0.5,0-0.9,0-1.4,0.1c-5.7,0.7-10.1,6-10.1,12.3c0,1.8,0.4,3.6,1.1,5.2c1.6,3.9,5.1,6.7,9.2,7.1
			c0.4,0.1,0.9,0.1,1.3,0.1c0.3,0,0.6,0,0.8,0c0.9,5.3,2.4,10.7,4.4,15.6C74.1,190.9,103,212,136.8,212h1.9
			c25.6,0,48.3-12.1,63-30.8c5.2-6.6,9.4-14.1,12.3-22.2C215.6,154.7,216.8,150.1,217.6,145.4z M98.4,128.3
			c-5.1,3.1-11.4,3.1-16.5,0c-1.6-1-0.1-3.6,1.5-2.6c4.2,2.6,9.2,2.6,13.4,0C98.6,124.7,100.1,127.3,98.4,128.3z M90.4,122.7
			c-5.2,0-9.4-4.2-9.4-9.4c0-5.2,4.2-9.4,9.4-9.4s9.4,4.2,9.4,9.4C99.7,118.5,95.5,122.7,90.4,122.7z M151.7,185.8
			c-8.1,5.6-18.8,4.8-26.1-1.6c-1.5-1.3,0.7-3.4,2.1-2.1c6.4,5.6,15.6,5.9,22.5,1.1C151.8,182.1,153.3,184.7,151.7,185.8z
			 M152,162.2c-7.8,0.9-15.8,0.9-23.6,0c-4.9-0.6-8.2-5.3-6.9-10c3.9-15.6,9.3-31,10.7-46.8c0.4-4.2,3.9-7.4,8.1-7.4
			s7.7,3.2,8.1,7.4c1.4,15.8,6.7,31.3,10.7,46.8C160.1,156.9,156.8,161.6,152,162.2z M196.4,128.3c-5.1,3.1-11.4,3.1-16.5,0
			c-1.6-1-0.1-3.6,1.5-2.6c4.2,2.6,9.2,2.6,13.4,0C196.6,124.7,198.1,127.3,196.4,128.3z M188.4,122.7c-5.2,0-9.4-4.2-9.4-9.4
			c0-5.2,4.2-9.4,9.4-9.4s9.4,4.2,9.4,9.4C197.7,118.5,193.5,122.7,188.4,122.7z"/>
		<path fill="#E1A157" d="M63.5,51.5c0.1,0,0.1,0,0.2,0l0.8-0.9C64.1,50.9,63.8,51.2,63.5,51.5z"/>
		<circle fill="#333333" cx="188.4" cy="113.3" r="9.4"/>
		<circle fill="#333333" cx="90.4" cy="113.3" r="9.4"/>
		<path fill="#BF7C35" d="M148.2,105.3c-0.4-4.2-3.9-7.4-8.1-7.4s-7.7,3.2-8.1,7.4c-1.4,15.8-6.7,31.3-10.7,46.8
			c-1.2,4.8,2.1,9.5,6.9,10c7.8,0.9,15.8,0.9,23.6,0c4.9-0.6,8.2-5.3,6.9-10C155,136.6,149.6,121.1,148.2,105.3z"/>
		<path fill="#333333" d="M96.9,125.7c-4.2,2.6-9.2,2.6-13.4,0c-1.6-1-3.2,1.6-1.5,2.6c5.1,3.1,11.4,3.1,16.5,0
			C100.1,127.3,98.6,124.7,96.9,125.7z"/>
		<path fill="#333333" d="M150.2,183.2c-6.9,4.8-16.1,4.4-22.5-1.1c-1.4-1.3-3.6,0.8-2.1,2.1c7.4,6.4,18.1,7.2,26.1,1.6
			C153.3,184.7,151.8,182.1,150.2,183.2z"/>
		<path fill="#F4D345" d="M57.2,120.9c2.7,0,5.2,1,7.2,2.7c3.1-1,5.3-3.9,5.3-7.4c0-3.6-2.4-6.6-5.7-7.5c-1.4,4.1-5.2,7.1-9.8,7.3
			c0,0.1,0,0.1,0,0.2c0,1.8,0.6,3.4,1.6,4.7C56.2,121,56.7,120.9,57.2,120.9z"/>
		<path fill="#F4D345" d="M53.6,94.3c2.3,0,4.5,0.7,6.3,2c1.1-1.3,1.8-3.1,1.8-5c0-3.3-2-6.1-4.9-7.2c-0.4-0.1-0.8-0.3-1.2-0.4
			c-0.5-0.1-1.1-0.2-1.6-0.2c-4.3,0-7.8,3.5-7.8,7.8c0,1.8,0.6,3.4,1.6,4.7C49.5,94.9,51.5,94.3,53.6,94.3z"/>
		<path fill="#F4D345" d="M64.5,105.2c0,1.2-0.2,2.4-0.6,3.5c0.6,0.2,1.3,0.3,2,0.3c4.3,0,7.8-3.5,7.8-7.8s-3.5-7.8-7.8-7.8
			c-2.4,0-4.5,1.1-6,2.8C62.7,98.3,64.5,101.6,64.5,105.2z"/>
		<path fill="#F4D345" d="M47.6,96.1c-1.4-1.6-3.5-2.5-5.7-2.5c-4.3,0-7.8,3.5-7.8,7.8s3.5,7.8,7.8,7.8c0.5,0,0.9,0,1.4-0.1
			c-0.4-1.2-0.6-2.4-0.6-3.7C42.7,101.4,44.6,98,47.6,96.1z"/>
		<path fill="#F4D345" d="M43.3,109c-1.8,0.6-3.2,1.9-4.2,3.5c-0.6,1.1-1,2.4-1,3.8c0,2.3,1,4.3,2.5,5.7c1.4,1.3,3.2,2,5.2,2
			c4.3,0,7.8-3.5,7.8-7.8c0,0,0-0.1,0-0.1c0,0,0,0-0.1,0C48.9,116.2,44.9,113.2,43.3,109z"/>
		<path fill="#A1459A" d="M63.9,108.8C63.9,108.8,63.9,108.8,63.9,108.8c0.4-1.2,0.6-2.3,0.6-3.6c0-3.7-1.8-6.9-4.6-8.9
			c0,0-0.1-0.1-0.1-0.1c-1.8-1.2-3.9-2-6.3-2c-2.1,0-4.1,0.6-5.8,1.7c0,0-0.1,0.1-0.1,0.1c-3,2-5,5.3-5,9.2c0,1.3,0.2,2.5,0.6,3.7
			c0,0,0,0.1,0,0.1c1.5,4.2,5.5,7.2,10.3,7.2c0,0,0,0,0.1,0c0.2,0,0.3,0,0.5,0C58.7,115.9,62.5,112.9,63.9,108.8z"/>
		<path fill="#333333" d="M252,153.3c0.2-0.3,0.5-0.6,0.7-0.9c1.8-3.1,0.8-7.1-2.3-8.9c-6.1-3.6-13.3-13.7-15.8-22.1
			c-2.2-7.5-0.6-15.7,1-24.4c0.7-3.8,1.4-7.7,1.8-11.7c1.1-10.9-0.2-20.8-4-30c-0.2-0.6-0.4-1.1-0.7-1.6
			c-4.3-9.6-11.4-18.4-21.3-26.4C201.3,19,176,8.5,175.1,8.1c-22.8-9.6-48.5-10.7-74.3-3.4C86,9,71.9,15.6,59.9,23.9
			C51.1,29.9,43.8,38,36.4,46.4C22.7,62.1,8,83.1,16.4,107.2c0.3,0.7,0.5,1.5,0.8,2.2c2.5,7.2,4.7,13.3,3.5,20.1
			c-1.5,8.5-5.8,15.2-13.1,20.4c-0.9,0.6-1.8,1.3-2.7,1.9c-0.7,0.5-1.5,1-2.2,1.5c-2.9,2.1-3.7,6.1-1.6,9.1c1.3,1.8,3.3,2.8,5.3,2.8
			c1.3,0,2.6-0.4,3.7-1.2c0.7-0.5,1.4-0.9,2.1-1.4c0.1-0.1,0.3-0.2,0.4-0.3c-0.4,8.9,3.8,16.6,7.4,22.1c5.5,8.3,6.6,14.5,3.9,21.8
			c-1.2,3.4,0.5,7.1,3.9,8.3c0.7,0.3,1.5,0.4,2.2,0.4c2.7,0,5.1-1.6,6.1-4.3c1.8-4.8,3.2-10.9,1.5-18.5c2.9,7.7,8.3,14.6,12.9,20.4
			c1.5,1.9,2.9,3.7,4.2,5.5c1.3,1.8,3.4,2.8,5.5,2.8c1.4,0,2.8-0.4,4.1-1.3c3-2.2,3.7-6.5,1.4-9.6c-1.4-2-3-3.9-4.5-5.8
			c-9.8-12.4-15.3-20.6-9.9-30.3c1.7-2.3,3.7-4.4,5.7-6.7c1.8-2,3.6-4,5.3-6.1c-2-4.9-3.4-10.1-4.4-15.4c-0.3,0-0.5,0-0.8,0
			c-0.4,0-0.9,0-1.3-0.1c-1.7,4.3-5,8.1-8.9,12.3c-2.3,2.5-4.6,5.1-6.8,8c-0.2,0.2-0.3,0.4-0.4,0.6c-4.4,7.4-5,14.4-3.6,20.9
			c-1.2-3.2-2.9-6.5-5.3-10.2c-5.3-8.1-6.5-13.7-4.1-19.4c1.9-4.6,5.8-7.5,10.3-10.9c2.1-1.6,4.3-3.2,6.4-5.1
			c1.2-1.1,2.2-2.2,3.2-3.3c-0.7-1.6-1.1-3.3-1.1-5.2c0-6.3,4.4-11.6,10.1-12.3c-1-1.3-1.6-2.9-1.6-4.7c0-0.1,0-0.1,0-0.2
			c-0.2,0-0.3,0-0.5,0c0,0,0,0.1,0,0.1c0,4.3-3.5,7.8-7.8,7.8c-2,0-3.8-0.8-5.2-2c-0.6,3.7-2.7,7.2-5.9,10.2c-0.5,0.5-1,0.9-1.6,1.3
			c0.1-0.6,0.2-1.1,0.3-1.7c1.8-10.2-1.2-18.6-4.1-26.8l-0.8-2.1c-2.4-6.7-2.1-13.2-0.3-19.5c-0.1,1.2-0.1,2.3-0.1,3.5
			c0.3,7.8,4,13.8,7.2,19c1.4,2.2,2.7,4.4,3.7,6.5c0.9-1.6,2.4-2.8,4.2-3.5c0,0,0-0.1,0-0.1c-0.5,0.1-0.9,0.1-1.4,0.1
			c-4.3,0-7.8-3.5-7.8-7.8s3.5-7.8,7.8-7.8c2.3,0,4.3,1,5.7,2.5c0,0,0.1-0.1,0.1-0.1c-1-1.3-1.6-2.9-1.6-4.7c0-4.3,3.5-7.8,7.8-7.8
			c0.6,0,1.2,0.1,1.8,0.2c0.4-0.4,1.3-0.9,1.3-1.3v-6.7c40-4.2,76.2-18.5,106.3-41.4c20.5,4.1,35.1,15.3,42.9,26.3
			c6.5,8.9,13.3,22.2,8.5,45.5c-4.6,11.4-3.8,25.9,6.7,32.7c2,1.5,3.8,3,5.5,4.4c-1.5,1.2-3.2,2-5.1,2.3c-1.3,4.5-4.1,9.2-7.9,13.5
			c-2.9,8-7.1,15.5-12.3,22.1c-0.1,1.1-0.2,2.3-0.2,3.5c0.1,9.7,4.7,19.6,12.6,27.1c1.3,1.3,3,1.9,4.7,1.9c1.8,0,3.6-0.7,5-2.1
			c2.6-2.7,2.5-7.1-0.2-9.7c-5.1-4.9-8.3-11.4-8.3-17.3c-0.1-4.7,1.7-8.9,5.2-12.4c6.9-6.3,11.9-13.9,14.3-21.5
			c6.1,6.6,7.9,12.4,4,18.6c-0.1,0.1-0.1,0.2-0.2,0.3l-0.4,0.8c-6.4,11.8-15.3,27.9-5.4,42.5c1.3,1.9,3.3,2.9,5.4,2.9
			c1.3,0,2.5-0.4,3.6-1.1c3-2,3.8-6,1.8-9c-5-7.4-0.4-17.1,6.1-29l0.4-0.6C254.9,167.6,254.8,160,252,153.3z"/>
		<path fill="#333333" d="M194.9,125.7c-4.2,2.6-9.2,2.6-13.4,0c-1.6-1-3.2,1.6-1.5,2.6c5.1,3.1,11.4,3.1,16.5,0
			C198.1,127.3,196.6,124.7,194.9,125.7z"/>
	</g>
</g>
</svg>
