<?xml version="1.0" encoding="utf-8"?>
<!-- Generator: Adobe Illustrator 19.2.0, SVG Export Plug-In . SVG Version: 6.00 Build 0)  -->
<svg version="1.1" xmlns="http://www.w3.org/2000/svg" xmlns:xlink="http://www.w3.org/1999/xlink" x="0px" y="0px" width="54.2px"
	 height="54.2px" viewBox="0 0 54.2 54.2" style="enable-background:new 0 0 54.2 54.2;" xml:space="preserve">
<style type="text/css">
	.st0{display:none;}
	.st1{display:inline;fill:#989898;}
	.st2{display:inline;fill:#FFFFFF;}
	.st3{fill:#989898;}
</style>
<g id="Layer_1" class="st0">
	<path class="st1" d="M45.9,54.2H8.3c-4.6,0-8.3-3.7-8.3-8.3V8.3C0,3.7,3.7,0,8.3,0h37.7c4.6,0,8.3,3.7,8.3,8.3v37.7
		C54.2,50.5,50.5,54.2,45.9,54.2z"/>
	<path class="st2" d="M49.8,15.6c-1.6,0.7-3.2,1.2-5,1.4c1.8-1.1,3.2-2.8,3.8-4.8c-1.7,1-3.5,1.7-5.5,2.1c-1.6-1.7-3.9-2.8-6.4-2.8
		c-4.8,0-8.7,3.9-8.7,8.7c0,0.7,0.1,1.3,0.2,2c-7.2-0.4-13.7-3.8-17.9-9.1c-0.7,1.3-1.2,2.8-1.2,4.4c0,3,1.5,5.7,3.9,7.3
		c-1.4,0-2.8-0.4-4-1.1c0,0,0,0.1,0,0.1c0,4.2,3,7.7,7,8.5c-0.7,0.2-1.5,0.3-2.3,0.3c-0.6,0-1.1-0.1-1.6-0.2c1.1,3.5,4.3,6,8.1,6.1
		c-3,2.3-6.7,3.7-10.8,3.7c-0.7,0-1.4,0-2.1-0.1c3.8,2.5,8.4,3.9,13.3,3.9c16,0,24.8-13.3,24.8-24.8c0-0.4,0-0.8,0-1.1
		C47.2,18.8,48.6,17.3,49.8,15.6z"/>
</g>
<g id="Layer_1_copy">
	<path class="st3" d="M45.9,0H8.3C3.7,0,0,3.7,0,8.3v37.7c0,4.6,3.7,8.3,8.3,8.3h37.7c4.6,0,8.3-3.7,8.3-8.3V8.3
		C54.2,3.7,50.5,0,45.9,0z M45.5,20.1c0,0.4,0,0.7,0,1.1c0,11.5-8.8,24.8-24.8,24.8c-4.9,0-9.5-1.4-13.3-3.9
		c0.7,0.1,1.4,0.1,2.1,0.1c4.1,0,7.8-1.4,10.8-3.7c-3.8-0.1-7-2.6-8.1-6.1c0.5,0.1,1.1,0.2,1.6,0.2c0.8,0,1.6-0.1,2.3-0.3
		c-4-0.8-7-4.3-7-8.5c0,0,0-0.1,0-0.1c1.2,0.7,2.5,1.1,4,1.1c-2.3-1.6-3.9-4.2-3.9-7.3c0-1.6,0.4-3.1,1.2-4.4
		c4.3,5.3,10.7,8.7,17.9,9.1c-0.2-0.6-0.2-1.3-0.2-2c0-4.8,3.9-8.7,8.7-8.7c2.5,0,4.8,1.1,6.4,2.8c2-0.4,3.8-1.1,5.5-2.1
		c-0.6,2-2,3.7-3.8,4.8c1.8-0.2,3.4-0.7,5-1.4C48.6,17.3,47.2,18.8,45.5,20.1z"/>
</g>
</svg>
