<?xml version="1.0" encoding="utf-8"?>
<!-- Generator: Adobe Illustrator 19.2.0, SVG Export Plug-In . SVG Version: 6.00 Build 0)  -->
<svg version="1.1" id="Layer_3_copy" xmlns="http://www.w3.org/2000/svg" xmlns:xlink="http://www.w3.org/1999/xlink" x="0px"
	 y="0px" width="54.2px" height="54.2px" viewBox="0 0 54.2 54.2" style="enable-background:new 0 0 54.2 54.2;"
	 xml:space="preserve">
<style type="text/css">
	.st0{fill:#999999;}
</style>
<g>
	<path class="st0" d="M26.9,4.6C14.6,4.6,4.6,14.6,4.6,27c0,12.3,10,22.3,22.3,22.3c12.3,0,22.3-10,22.3-22.3
		C49.3,14.6,39.2,4.6,26.9,4.6z M26.9,7.2c6.1,0,11.5,2.7,15.1,7c-0.2,0-0.5,0-0.7,0.1c0,0-3.9,0.9-0.8,7.2c0,0,1.9,5.1-1.2,12.1
		L37.7,38l-6-16.1c0,0-0.4-1.7,1.4-1.7l1.4-0.1l0-1H20.6V20c0,0,2.4,0,3.4,1.7l2.5,6.3l-4.4,10.6L15.5,22c0,0-0.2-1.9,1.7-1.9l0.9,0
		l0-1l-9.3,0.1C11.7,12.1,18.7,7.2,26.9,7.2z M7.1,27c0-2,0.3-3.8,0.8-5.6l0.1,0.1l9.3,22.8C11.2,41,7.1,34.5,7.1,27z M26.9,46.9
		c-2.2,0-4.3-0.4-6.3-1h0l6.8-15.8l6.1,15.7C31.4,46.5,29.2,46.9,26.9,46.9z M46.8,27L46.8,27c0,7.3-3.9,13.7-9.8,17.1l8.9-23
		C46.5,23,46.8,25,46.8,27z"/>
	<path class="st0" d="M45.9,0H8.3C3.7,0,0,3.7,0,8.3v37.7c0,4.6,3.7,8.3,8.3,8.3h37.7c4.6,0,8.3-3.7,8.3-8.3V8.3
		C54.2,3.7,50.5,0,45.9,0z M26.9,50.3C14,50.3,3.6,39.9,3.6,27C3.6,14.1,14,3.6,26.9,3.6c12.9,0,23.4,10.5,23.4,23.4
		C50.3,39.9,39.8,50.3,26.9,50.3z"/>
</g>
</svg>
